<svg width="218" height="501" viewBox="0 0 218 501" fill="none" xmlns="http://www.w3.org/2000/svg">
<path d="M77.8452 500.495C89.1125 500.894 100.335 500.673 111.603 500.451C142.965 499.874 174.371 499.253 205.733 498.677C210.612 498.588 216.912 497.523 217.267 493.753C217.577 490.381 212.609 488.252 208.439 487.232C193.402 483.639 177.609 482.929 161.995 482.352C139.017 481.465 116.039 480.755 93.1049 480.179C78.7768 479.824 64.0051 479.558 50.653 483.328C43.378 485.369 32.5989 494.063 44.1767 498.233C47.3705 499.386 53.8912 498.854 57.3513 499.164C64.1382 499.741 70.9696 500.273 77.8452 500.495Z" fill="url(#paint0_linear)"/>
<path d="M77.8452 500.495C89.1125 500.894 100.335 500.673 111.603 500.451C142.965 499.874 174.371 499.253 205.733 498.677C210.612 498.588 216.912 497.523 217.267 493.753C217.577 490.381 212.609 488.252 208.439 487.232C193.402 483.639 177.609 482.929 161.995 482.352C139.017 481.465 116.039 480.755 93.1049 480.179C78.7768 479.824 64.0051 479.558 50.653 483.328C43.378 485.369 32.5989 494.063 44.1767 498.233C47.3705 499.386 53.8912 498.854 57.3513 499.164C64.1382 499.741 70.9696 500.273 77.8452 500.495Z" fill="url(#paint1_linear)"/>
<path d="M202.185 203.465C200.011 200.759 196.551 199.118 193.091 199.207C193.889 198.408 194.732 197.078 193.934 196.235C193.446 195.702 192.603 195.791 191.893 195.88C188.876 196.235 185.772 195.969 182.8 195.126C182.533 195.037 182.267 194.993 182.001 194.904C164.213 188.25 147.001 180.088 130.589 170.55C131.875 164.695 131.609 158.618 131.343 152.629C130.943 143.979 130.544 135.374 130.189 126.724C130.056 123.397 129.746 119.804 127.483 117.408C123.447 113.194 115.684 115.944 112.978 121.134C110.272 126.28 111.026 132.535 111.869 138.301C114.087 153.383 116.305 168.51 118.523 183.592C118.789 185.322 119.1 187.185 120.342 188.427C121.317 189.403 122.737 189.758 124.068 190.113C142.033 194.904 159.954 199.65 177.92 204.441C177.964 204.397 177.964 204.352 178.009 204.352C184.529 208.123 192.558 209.143 199.745 206.97C200.499 206.748 201.342 206.437 201.785 205.772C202.229 205.018 202.273 204.219 202.185 203.465Z" fill="#EADDD0"/>
<path d="M178.186 204.84C178.053 205.195 177.876 205.55 177.521 205.728C177.21 205.905 176.811 205.816 176.456 205.772C157.958 202.356 138.706 199.473 121.184 192.597C119.765 192.021 118.301 191.444 117.236 190.335C115.994 189.048 115.418 187.23 114.93 185.5C109.207 165.494 103.796 145.044 104.505 124.284C104.638 119.937 105.215 115.279 108.054 111.996C111.203 108.403 116.305 107.383 121.051 106.762C124.112 106.363 127.616 106.141 130.012 108.093C132.363 110 132.851 113.327 133.206 116.299C134.315 126.28 135.468 136.305 136.577 146.286C137.331 153.029 138.085 159.771 138.884 166.514C139.017 167.8 139.194 169.131 139.771 170.284C140.969 172.68 143.675 173.833 146.159 174.854C154.986 178.447 163.681 182.439 172.198 186.786C174.504 187.984 181.646 190.867 182.489 193.529C182.977 195.037 180.936 197.565 180.315 198.941C179.384 201.114 179.118 202.711 178.186 204.84Z" fill="#E8E8E8"/>
<path d="M110.982 483.106C112.978 484.57 110.272 485.679 108.941 485.812C106.546 485.99 104.062 485.901 101.755 485.413C101.134 485.28 100.513 485.147 100.025 484.792C99.6258 484.526 99.3597 484.171 99.0492 483.816C98.2951 482.84 96.4763 481.288 96.1658 480.134C95.944 479.203 96.6095 478.271 97.0974 477.429C98.2064 475.61 100.069 473.747 99.9806 471.573C105.171 472.061 110.095 470.553 114.397 471.706C114.752 473.259 116.127 474.501 115.462 475.699C115.861 474.9 128.371 477.606 129.835 477.828C132.23 478.227 134.625 478.582 137.021 478.759C138.884 478.892 142.521 478.138 143.586 479.78C143.941 480.356 144.074 481.022 144.163 481.687C144.207 482.175 144.207 482.707 144.029 483.151C143.719 483.949 142.832 484.57 141.9 484.837C131.653 488.075 121.406 482.973 110.982 483.106Z" fill="#999999"/>
<path d="M144.029 231.501C143.364 229.504 141.235 228.439 139.239 227.641C126.197 222.584 111.869 222.052 97.8514 222.14C90.5765 222.185 83.346 222.362 76.0711 222.673C71.0141 222.895 60.7669 222.984 58.1497 228.44C55.222 234.561 52.6494 246.671 54.1576 252.837C56.8635 264.06 55.8873 284.155 58.9038 298.616C58.5933 358.235 58.2829 417.81 57.9724 477.429C62.8076 477.562 67.6428 477.65 72.478 477.783C73.1877 458.132 79.2204 438.969 84.233 419.761C89.5118 399.445 93.6372 378.906 96.698 358.235C97.7183 396.739 98.7386 435.287 99.8032 473.791C104.638 473.791 109.474 473.791 114.309 473.791C114.398 454.14 119.809 434.844 124.201 415.547C134.403 370.789 143.142 300.612 142.388 255.011C142.832 248.224 143.231 241.437 144.118 234.96C144.251 233.807 144.384 232.609 144.029 231.501Z" fill="#4D4D4D"/>
<path d="M68.9289 486.966C70.8807 488.474 68.1306 489.539 66.7998 489.627C64.4044 489.761 61.9203 489.583 59.6136 489.051C58.9926 488.918 58.3715 488.74 57.8835 488.385C57.4843 488.119 57.2183 487.72 56.9521 487.365C56.198 486.345 54.4234 484.748 54.2016 483.639C53.9798 482.707 54.6898 481.776 55.2221 480.933C56.3754 479.159 58.3272 477.296 58.2829 475.122C63.4285 475.743 68.4411 474.323 72.6996 475.61C73.0102 477.162 74.3408 478.449 73.631 479.647C74.0746 478.848 86.4954 481.82 87.9593 482.131C90.3103 482.574 92.7057 482.974 95.1454 483.24C97.0085 483.417 100.646 482.752 101.666 484.393C102.021 484.97 102.11 485.635 102.154 486.301C102.198 486.788 102.154 487.321 101.977 487.764C101.622 488.563 100.735 489.139 99.8031 489.405C89.423 492.422 79.3534 487.099 68.9289 486.966Z" fill="#999999"/>
<path d="M121.007 19.2411C116.172 22.9229 113.244 28.5566 110.538 34.0128C107.211 40.7998 103.929 47.8529 103.441 55.394C103.086 60.9833 104.195 66.9273 101.666 71.8955C111.204 75.533 120.563 79.5697 129.746 84.0057C142.832 69.8551 151.925 52.067 155.696 33.1699C155.829 32.5489 155.918 31.8836 155.696 31.2625C155.43 30.5971 154.809 30.1534 154.232 29.7542C146.07 24.3424 136.621 21.2817 127.262 18.2209C126.286 17.9104 125.266 17.5555 124.245 17.6886C123.048 17.8217 121.983 18.4869 121.007 19.2411Z" fill="#EADDD0"/>
<path d="M143.187 219.302C142.743 209.454 142.521 199.562 142.654 189.714C142.876 167.091 141.678 144.601 140.037 122.022C139.372 112.884 138.618 103.79 137.775 94.6519C137.464 91.1031 127.129 87.377 124.556 86.8447C123.003 86.5342 121.495 86.0462 120.031 85.5583C118.612 85.0703 117.192 84.538 115.817 84.0057C108.764 81.2997 101.755 78.5939 94.7018 75.888C93.6372 75.4887 92.5283 75.0895 91.4637 75.3113C90.6209 75.4887 89.9111 76.021 89.2457 76.5533C76.1154 87.1552 72.5222 104.411 68.9291 120.07C60.8113 155.291 56.2425 191.267 55.2666 227.286C55.2666 227.286 57.3515 233.009 64.4046 237.045C71.4577 241.082 96.8757 244.054 96.8757 244.054L131.476 240.284C131.343 240.328 143.719 236.38 143.187 219.302Z" fill="#EFEFEF"/>
<path d="M189.675 190.424C190.118 188.206 190.651 185.81 192.115 184.258C193.8 182.483 196.151 182.528 198.148 182.883C200.454 183.282 202.761 183.947 204.935 184.79C205.866 185.145 208.084 185.988 208.661 186.964C209.459 188.339 208.705 190.246 208.217 192.021C205.245 202.667 203.205 211.628 199.966 221.209C199.523 222.54 198.946 224.004 197.882 224.625C197.216 225.024 196.462 224.935 195.752 224.847C191.981 224.359 180.537 223.028 182.4 216.063C184.707 207.413 187.856 199.207 189.675 190.424Z" fill="#3D3D3D"/>
<path d="M191.316 188.649C191.627 187.851 191.937 187.008 192.558 186.52C193.268 185.943 194.111 186.032 194.865 186.121C198.059 186.609 201.208 187.452 204.314 188.339C204.802 188.472 206.044 188.827 206.398 189.27C206.62 189.537 207.064 190.025 207.153 190.424C207.463 191.799 206.62 193.13 206.398 194.594C206.177 195.924 205.556 197.122 205.245 198.408C204.935 199.828 204.491 201.203 204.047 202.578C203.426 204.619 202.894 206.703 202.406 208.788C202.051 210.297 201.652 211.76 201.386 213.269C201.253 213.978 200.987 214.688 200.588 215.265C199.967 216.063 199.257 216.152 198.458 216.063C196.906 215.886 195.398 215.442 193.934 215.043C191.716 214.378 189.542 213.757 187.324 213.091C186.526 212.87 184.84 212.648 184.84 211.317C184.84 210.607 185.328 209.631 185.505 208.922C185.771 207.99 186.037 207.058 186.304 206.082C187.324 202.312 188.256 198.541 189.32 194.771C189.941 192.73 190.606 190.69 191.316 188.649Z" fill="white"/>
<path d="M202.717 186.076C202.495 185.943 202.229 185.855 201.963 185.81C201.386 185.633 200.765 185.5 200.188 185.322C199.833 185.234 199.39 185.145 199.301 185.322C199.257 185.411 199.301 185.544 199.39 185.633C199.833 186.077 202.717 187.052 203.027 186.52C203.116 186.387 202.939 186.209 202.717 186.076Z" fill="#5E625E"/>
<path d="M198.991 185.056C198.946 184.923 198.813 184.834 198.635 184.879C198.502 184.923 198.37 185.012 198.325 185.189C198.281 185.278 198.236 185.411 198.281 185.5C198.325 185.721 198.547 185.81 198.724 185.722C198.902 185.633 198.991 185.411 198.991 185.189V185.056Z" fill="#5E625E"/>
<path d="M190.651 217.35C190.297 217.527 189.986 217.882 189.808 218.281C189.72 218.459 189.631 218.681 189.587 218.858C189.498 219.39 189.675 219.878 189.986 220.233C190.296 220.588 190.784 220.765 191.228 220.81C191.361 220.81 191.494 220.81 191.583 220.765C191.716 220.721 191.849 220.632 191.937 220.499C192.337 220.1 192.647 219.479 192.647 218.902C192.692 217.882 191.672 216.862 190.651 217.35Z" fill="#EBEFEB"/>
<path d="M124.068 50.8692C122.56 49.2722 120.652 47.4979 118.434 47.8084C116.394 48.0745 114.974 50.0707 114.575 52.1112C114.176 54.1074 114.53 56.1923 114.664 58.2328C114.708 58.6764 114.664 59.1644 114.397 59.4749C114.087 59.8298 113.555 59.8298 113.067 59.8741C111.248 60.0516 109.562 61.0274 108.498 62.4913C107.699 63.6003 107.256 64.9755 106.28 65.9957C104.993 67.3709 103.042 67.8145 101.178 68.0806C99.3597 68.3468 97.5855 68.5686 95.7667 68.6573C94.3029 68.746 92.5727 68.6573 91.7299 67.4153C91.5524 67.1935 91.4638 66.9273 91.5081 66.6168C91.5969 66.1289 92.0847 65.9071 92.4839 65.6409C93.9921 64.6206 94.5246 62.6244 94.6133 60.8056C94.7464 58.9869 94.6133 57.0796 95.4118 55.3939C95.8554 54.4624 96.565 53.6638 97.2748 52.9541C102.42 47.631 109.163 44.0822 116.216 42.0417C118.079 41.5094 125.088 38.9809 126.685 40.4447C128.193 41.8198 124.467 48.873 124.068 50.8692Z" fill="#D7C68E"/>
<path d="M149.974 40.3561C150.905 40.8884 151.792 41.5982 152.325 42.4854C152.68 43.062 152.857 43.7274 153.167 44.3041C153.877 45.6793 155.208 46.6995 156.716 47.01C156.716 45.5905 156.716 44.1266 156.761 42.7071C156.761 42.3966 156.761 42.0417 157.027 41.8199C157.382 41.5094 157.914 41.6868 158.313 41.4207C158.668 41.1989 158.712 40.7109 158.757 40.3117C158.845 38.4929 158.934 36.5856 158.313 34.8556C158.091 34.2345 157.736 33.6134 157.204 33.2586C156.627 32.8593 155.918 32.8149 155.208 32.8149C151.881 32.7262 144.961 33.1699 142.388 35.7871C139.682 38.5817 148.155 39.3358 149.974 40.3561Z" fill="#D7C68E"/>
<path d="M61.2994 223.782C61.7873 226.709 62.4527 229.682 61.8317 232.565C61.3881 234.606 60.279 236.424 58.9926 237.977C53.1815 244.985 43.733 247.07 34.9055 247.647C24.5254 248.357 12.8145 246.937 6.02757 238.553C1.85779 233.408 0.349616 226.355 0.527053 219.612C0.70449 212.869 2.43449 206.26 4.12015 199.783C8.24556 183.991 12.4153 168.2 16.5407 152.408C17.2061 149.879 17.9159 147.262 19.6459 145.399C21.9526 142.915 25.4569 142.249 28.7395 141.895C34.7724 141.185 40.9384 140.83 46.8382 142.205C51.7621 143.358 59.3032 146.597 61.6099 151.831C64.1828 157.731 62.2753 168.067 61.8761 174.366C60.8114 190.823 58.4604 207.457 61.2994 223.782Z" fill="#736357"/>
<path d="M71.014 112.618C76.2041 104.677 83.4789 97.3135 93.3266 93.3212C103.174 89.3288 115.906 89.3732 124.467 95.0069C132.895 100.552 135.69 110 136.799 118.828C138.839 134.797 137.109 150.988 133.25 166.736C131.609 173.523 129.524 180.31 125.753 186.52C121.14 194.106 114.176 200.493 106.945 206.526C92.9274 218.193 76.692 229.194 57.1295 232.61C55.0447 232.964 52.7824 233.319 51.4073 234.605C48.7457 237.09 51.4073 241.393 55.2665 242.324C59.1258 243.256 63.2511 241.969 66.8442 240.505C84.9428 233.186 99.7144 221.387 114.131 209.809C119.188 205.772 124.289 201.647 127.439 196.457C130.056 192.154 131.21 187.363 132.319 182.616C136.4 165.095 140.525 147.484 141.856 129.651C142.388 122.199 142.477 114.614 139.993 107.427C137.509 100.241 132.185 93.4542 124.201 89.9498C119.41 87.8649 113.954 86.9778 108.542 86.8448C95.5445 86.5342 82.5032 90.3934 72.7441 97.4466C68.7961 100.286 65.2474 103.79 63.8722 108.004C62.6302 111.775 63.2069 116.965 67.1992 119.449C68.5743 117.364 69.5502 114.835 71.014 112.618Z" fill="#736357"/>
<path d="M15.6976 121.401C21.5086 114.259 30.6912 108.714 40.8495 108.315C46.0839 108.093 51.2738 109.202 56.2421 110.666C59.8352 111.73 63.4282 113.061 66.1341 115.368C70.4369 119.005 71.7236 124.506 71.901 129.651C72.1228 135.152 71.3243 140.697 69.5943 146.02C68.9289 148.105 68.0417 150.19 66.2673 151.742C63.6501 154.049 59.6135 154.67 55.843 154.892C41.8254 155.868 27.586 153.739 14.7662 148.815C7.31384 145.976 5.14018 145.266 7.22507 138.257C8.99944 132.269 11.5722 126.457 15.6976 121.401Z" fill="#63564B"/>
<path d="M37.5226 204.929C39.3857 204.574 41.6036 204.175 42.9343 205.55C43.5997 206.26 43.8659 207.28 44.0433 208.256C45.241 215.087 44.3095 222.274 41.3375 228.573C40.3616 230.658 39.1639 232.654 37.4782 234.206C34.0626 237.356 29.1829 238.243 24.5251 238.154C21.8192 238.11 18.9802 237.711 16.7622 236.203C13.2135 233.763 12.016 229.149 11.6611 224.847C11.3506 220.987 11.4391 217.083 12.0602 213.269C12.3707 211.184 12.7699 204.929 15.121 204.131C16.3187 203.731 19.1133 204.973 20.3997 205.195C22.3072 205.506 24.2592 205.728 26.1667 205.816C29.9816 205.949 33.7965 205.683 37.5226 204.929Z" fill="#63564B"/>
<path d="M10.951 207.946C10.8622 208.301 10.818 208.744 11.0842 209.01C11.2616 209.188 11.5276 209.188 11.7938 209.188C20.9318 209.587 30.0701 209.942 39.2081 210.341C40.8494 210.43 42.6679 210.43 43.9543 209.409C45.5512 208.167 45.7289 205.683 44.753 203.953C43.7771 202.223 41.8251 201.158 39.8733 200.759C37.9215 200.36 35.8811 200.493 33.8849 200.582C28.4287 200.892 22.9281 201.158 17.4719 201.025C15.9637 200.981 14.6772 200.626 13.4795 201.735C12.06 203.066 11.3502 206.127 10.951 207.946Z" fill="#63564B"/>
<path d="M43.7329 169.486C44.0434 169.486 44.354 169.486 44.6201 169.619C45.0637 169.841 45.1969 170.418 45.2856 170.906C45.7292 173.523 45.7734 176.273 45.3298 178.89C45.2854 179.201 45.1969 179.511 44.9751 179.644C44.7977 179.778 44.5314 179.777 44.3096 179.777C35.4821 179.556 26.6103 179.334 17.7828 179.023C17.7385 177.116 17.8715 175.164 18.2707 173.257C19.291 168.422 25.0133 169.885 28.8282 169.797C33.7965 169.708 38.7647 169.619 43.7329 169.486Z" fill="#63564B"/>
<path d="M11.2619 162.211C11.2619 164.429 11.3507 166.691 11.0402 168.909C10.2417 174.898 6.73726 180.177 2.92236 184.923C4.38622 185.5 5.89444 186.076 7.35829 186.653C8.28984 184.524 9.177 182.395 10.1086 180.31C10.9957 178.225 11.9275 176.095 12.5041 173.878C13.2139 171.127 13.3469 168.288 13.5243 165.449C13.7017 162.078 16.186 149.702 13.7019 147.44C10.5524 148.859 11.3063 159.15 11.2619 162.211Z" fill="#63564B"/>
<path d="M151.349 238.598C153.123 240.106 154.986 241.614 157.204 242.28C159.422 242.945 162.128 242.59 163.592 240.771C165.145 238.82 164.79 235.892 163.415 233.807C162.04 231.722 159.866 230.347 157.781 229.016C159.201 229.549 160.664 227.774 160.354 226.31C159.999 224.802 158.535 223.871 157.071 223.427C155.607 222.983 154.055 222.895 152.635 222.318C151.349 221.83 149.442 221.564 148.377 220.721C143.764 217.083 141.945 214.6 135.823 208.744C134.093 207.103 132.585 205.373 130.988 203.598C129.879 202.356 128.859 201.025 127.572 199.961C125.665 198.364 122.471 198.009 120.652 196.323C119.188 194.993 117.858 193.839 115.773 194.771C112.446 196.323 112.889 201.247 114.486 203.82C117.148 208.034 121.983 211.716 125.532 215.176C129.524 219.08 133.605 222.895 137.731 226.665C142.166 230.702 146.736 234.694 151.349 238.598Z" fill="#EDD5BE"/>
<path d="M112.224 175.829C111.204 174.676 110.139 173.523 109.518 172.103C108.808 170.506 108.675 168.688 108.72 166.869C108.941 159.106 112.534 151.742 116.039 144.6C118.168 140.298 120.297 135.995 122.87 132.002C124.645 129.252 126.862 125.393 127.439 122.288C128.104 118.695 128.725 111.775 128.282 110.488C126.02 103.701 120.608 97.8014 113.067 97.757C110.937 97.757 103.174 100.685 101.666 102.237C99.8919 104.056 96.7868 109.29 94.5245 111.73C93.8147 112.529 93.4598 113.549 93.1049 114.525C92.129 117.231 91.1976 119.937 90.2217 122.643C89.0684 125.836 87.9594 129.03 87.1609 132.313C86.052 136.749 85.5639 141.318 85.697 145.798C85.8301 149.79 84.4105 155.69 85.0315 159.594C85.6525 163.586 85.1204 168.732 85.7414 172.724C86.185 175.563 86.6286 178.402 87.6932 181.02C88.7135 183.504 90.3103 185.722 91.9515 187.851C99.8919 198.009 129.302 221.431 138.928 229.948L148.332 219.479C139.194 213.047 119.721 184.125 112.224 175.829Z" fill="#E3E3E3"/>
<path d="M99.8477 19.2854C97.0974 21.4591 93.5487 22.2575 90.4435 23.81C87.3384 25.3626 84.3663 28.4234 84.8986 31.8835C85.564 36.142 91.1974 38.6705 91.0644 42.9733C91.02 44.4815 90.2217 45.901 90.133 47.4092C89.8225 51.3572 94.3028 54.2849 98.2508 54.0187C102.199 53.7526 105.659 51.4015 109.075 49.3167C122.072 41.4207 137.11 37.0735 152.28 36.63C154.809 36.5412 157.47 36.5856 159.733 35.4766C162.039 34.4119 163.858 31.7947 163.148 29.355C162.172 25.8949 157.382 25.274 155.297 22.3907C154.143 20.7937 153.922 18.7087 153.167 16.89C151.748 13.6074 148.643 11.4782 145.627 9.52634C139.505 5.48964 133.028 1.36422 125.753 0.787551C119.277 0.255239 112.535 2.73944 107.389 6.55434C102.775 10.0587 104.461 15.6036 99.8477 19.2854Z" fill="#D7C68E"/>
<defs>
<linearGradient id="paint0_linear" x1="39.3336" y1="487.422" x2="217.146" y2="496.192" gradientUnits="userSpaceOnUse">
<stop stop-color="#4D4D4D"/>
<stop offset="1"/>
</linearGradient>
<linearGradient id="paint1_linear" x1="39.3336" y1="487.422" x2="217.146" y2="496.192" gradientUnits="userSpaceOnUse">
<stop/>
<stop offset="1"/>
</linearGradient>
</defs>
</svg>
