<svg width="219" height="501" viewBox="0 0 219 501" fill="none" xmlns="http://www.w3.org/2000/svg">
<path d="M34.2407 500.478C44.1536 500.84 54.0665 500.705 63.9793 500.614C91.6357 500.297 119.292 500.026 146.948 499.709C151.248 499.664 156.816 498.849 157.087 495.952C157.359 493.327 152.969 491.652 149.257 490.837C135.994 487.94 122.053 487.352 108.293 486.808C88.0597 485.994 67.7815 485.315 47.5484 484.772C34.9197 484.41 21.9288 484.138 10.1601 486.99C3.73263 488.529 -5.72754 495.228 4.54742 498.577C7.39907 499.482 13.1024 499.12 16.1804 499.392C22.2005 499.799 28.2206 500.252 34.2407 500.478Z" fill="url(#paint0_linear)"/>
<path opacity="0.22" d="M34.2407 500.478C44.1536 500.84 54.0665 500.705 63.9793 500.614C91.6357 500.297 119.292 500.026 146.948 499.709C151.248 499.664 156.816 498.849 157.087 495.952C157.359 493.327 152.969 491.652 149.257 490.837C135.994 487.94 122.053 487.352 108.293 486.808C88.0597 485.994 67.7815 485.315 47.5484 484.772C34.9197 484.41 21.9288 484.138 10.1601 486.99C3.73263 488.529 -5.72754 495.228 4.54742 498.577C7.39907 499.482 13.1024 499.12 16.1804 499.392C22.2005 499.799 28.2206 500.252 34.2407 500.478Z" fill="url(#paint1_linear)"/>
<path d="M200.315 111.704C201.492 110.12 202.986 108.717 204.615 107.585C206.199 106.499 208.508 105.684 210.047 106.952C211.541 108.219 211.088 110.573 210.409 112.338C207.15 120.576 200.768 127.094 194.567 133.386C191.941 131.621 189.587 129.448 187.641 126.958C190.538 124.65 192.801 121.662 194.25 118.268C195.789 114.646 196.603 110.346 199.817 108.128C200.179 108.491 200.542 108.898 200.904 109.26C200.677 110.12 200.496 110.935 200.315 111.704Z" fill="#E8DBCE"/>
<path d="M57.5973 202.187C42.2075 199.155 51.4413 155.927 70.5428 160.182C87.8337 164.03 109.877 179.691 128.3 179.329C137.126 179.148 145.319 175.482 151.656 168.42C164.285 154.343 176.552 139.994 188.411 125.329C191.715 127.637 195.065 129.946 198.369 132.254C186.012 152.216 173.61 172.222 161.252 192.184C158.853 196.031 156.364 200.015 152.697 202.776C149.122 205.446 144.867 206.669 140.702 207.574C113.182 213.594 81.9947 206.985 57.5973 202.187Z" fill="#444748"/>
<path d="M106.618 492.15C108.202 493.462 106.075 494.503 105.034 494.594C103.178 494.775 101.232 494.684 99.4211 494.232C98.9232 494.096 98.4706 493.96 98.0632 493.643C97.7463 493.417 97.5202 493.055 97.3391 492.738C96.7507 491.833 95.3022 490.43 95.0759 489.389C94.8948 488.529 95.3926 487.714 95.8 486.944C96.66 485.269 98.1084 483.595 98.0179 481.603C102.046 482.056 105.894 480.653 109.244 481.739C109.515 483.142 110.556 484.274 110.104 485.405C110.42 484.681 120.152 487.125 121.284 487.352C123.14 487.714 124.995 488.031 126.896 488.212C128.345 488.347 131.151 487.669 132.011 489.117C132.283 489.615 132.419 490.249 132.464 490.837C132.509 491.29 132.509 491.742 132.374 492.195C132.102 492.919 131.423 493.462 130.699 493.734C122.687 496.676 114.72 492.014 106.618 492.15Z" fill="#1A1A1A"/>
<path d="M102.862 307.155C112.005 306.929 121.194 306.657 130.337 306.431C130.925 305.254 128.526 306.25 128.572 307.562C129.16 349.024 125.448 390.532 117.527 431.269C114.132 448.832 109.878 466.349 109.832 484.228C106.076 484.228 102.318 484.228 98.5615 484.228C97.2941 428.327 96.0268 372.426 94.7141 316.525C94.6688 313.718 94.7593 310.459 96.932 308.649C98.5615 307.291 100.779 307.2 102.862 307.155Z" fill="#543237"/>
<path d="M25.3688 476.081C20.2993 476.036 15.2297 474.225 11.2917 471.011C20.2088 455.259 29.171 439.507 38.0881 423.71C40.8944 418.731 43.746 413.707 45.6924 408.32C48.0461 401.667 49.5851 394.696 49.9472 387.68C53.7947 310.459 53.7948 310.459 48.0462 293.802C47.2767 291.629 33.2448 283.708 48.0462 293.802C53.4779 297.514 74.0731 294.481 80.5912 295.432C82.0396 295.658 83.5786 295.93 84.5291 297.016C85.6155 298.238 83.986 302.583 85.4345 301.723C97.0674 294.888 89.2818 304.168 87.5618 325.668C86.9733 333.227 79.0068 381.343 76.7436 388.54C72.715 401.305 67.3288 414.522 59.136 425.159C46.5073 441.499 38.1333 456.527 25.3688 476.081Z" fill="#543237"/>
<path d="M99.5118 74.7235C97.4749 71.2381 96.3433 66.7117 96.3885 61.4611C96.5243 51.7293 97.7013 41.7712 102.137 33.3068C107.207 23.5297 119.021 14.4769 130.291 18.1885C143.508 22.4886 141.336 40.6396 139.525 52.6346C138.077 62.1853 134.093 71.6455 126.851 77.4846C116.033 86.2658 104.762 83.9121 99.5118 74.7235Z" fill="#E8DBCE"/>
<path d="M16.452 483.504C17.4026 485.496 14.8677 485.586 13.8266 485.224C11.9255 484.591 10.0697 483.64 8.44016 482.418C8.03278 482.101 7.58018 481.739 7.35386 481.241C7.17281 480.879 7.0822 480.426 6.99167 480.019C6.81062 478.887 5.99594 476.85 6.22226 475.719C6.40332 474.813 7.26317 474.18 8.03266 473.591C9.61691 472.324 12.3328 470.015 13.1475 468.024C16.9497 470.197 22.6532 472.777 25.5048 475.311C23.9659 476.443 23.8299 477.394 22.8341 478.299C23.4678 477.71 31.9775 484.364 33.0186 485.088C34.6933 486.265 36.4135 487.352 38.1788 488.348C39.5819 489.117 42.6145 489.66 42.7955 491.471C42.8408 492.104 42.7052 492.738 42.4789 493.372C42.2978 493.824 42.1167 494.277 41.7998 494.639C41.2114 495.273 40.3061 495.499 39.4913 495.454C30.348 495.001 24.509 486.944 16.452 483.504Z" fill="#1A1A1A"/>
<path d="M45.1491 195.805C46.8239 166.474 50.8977 136.192 63.8433 111.161C73.1677 93.1913 85.9773 72.3245 103.902 91.1091C105.531 92.8292 116.666 86.4016 117.798 88.5743C120.514 87.6238 123.592 88.6196 125.402 92.6934C131.513 106.318 133.686 121.3 134.636 136.735C135.768 154.434 136.085 172.268 136.492 190.011C136.673 198.249 136.854 206.488 136.945 214.68C139.435 236.679 140.702 258.813 137.85 280.947C137.714 282.079 137.397 283.029 137.035 283.844C136.99 289.412 136.9 294.934 136.809 300.501C136.764 304.032 134.637 308.739 131.559 309.282C104.174 314.035 76.8342 312.768 49.8568 305.073C46.6883 304.168 44.7418 300.184 44.606 296.292C43.3839 262.887 43.2933 229.21 45.1491 195.805Z" fill="#F0F0F0"/>
<path d="M49.54 145.607C56.4655 122.613 66.9215 100.841 77.287 79.2499C78.826 76.0361 84.1219 76.8962 84.8913 80.2457C85.1177 81.2415 85.2985 82.2373 85.5248 83.2331C86.7922 83.0068 88.1049 83.4595 88.965 84.8627C107.116 116.14 105.124 155.611 107.071 190.509C108.7 219.388 110.33 248.266 111.959 277.145C113.227 284.432 114.403 291.72 115.535 299.007C115.671 300.049 115.535 300.954 115.218 301.723C117.21 307.336 117.617 313.175 116.667 319.422C116.35 321.413 113.906 323.133 111.959 323.043C108.655 322.862 105.487 322.364 102.409 321.504C89.3725 323.133 75.612 323.405 63.7981 317.385C48.3177 309.509 42.1165 304.847 41.1207 288.778C39.7628 266.463 41.166 231.835 41.1207 209.52C41.0302 187.793 43.2936 166.474 49.54 145.607Z" fill="#444748"/>
<path d="M120.786 85.6321C121.058 85.089 121.737 84.9079 122.28 85.0437C125.584 85.8132 125.855 86.9901 127.123 90.0228C129.069 94.6397 130.925 99.2114 132.509 103.964C135.542 113.017 137.805 122.296 139.48 131.711C142.875 150.631 144.142 169.869 144.459 189.061C144.821 209.203 145.183 229.527 144.459 249.67C144.052 260.533 143.644 271.442 142.965 282.26C142.648 287.691 142.06 293.078 141.743 298.51C141.426 303.126 141.336 306.929 139.344 311.183C138.032 313.99 133.007 313.401 132.464 310.278C131.695 305.707 132.555 301.859 133.279 297.333C134.139 291.856 134.411 286.379 134.954 280.902C135.95 270.989 136.266 260.986 136.402 251.027C136.583 231.202 137.217 211.421 136.991 191.596C136.764 172.63 135.995 153.528 132.917 134.789C131.423 125.781 129.432 116.864 126.761 108.128C125.131 102.878 123.366 97.5819 121.148 92.5123C119.926 89.5701 119.292 88.5743 120.786 85.6321Z" fill="#444748"/>
<path d="M84.1219 114.873C93.3558 104.734 109.742 110.799 104.31 127.139C99.3761 141.941 92.5411 155.973 91.2285 172.223C90.5948 180.008 93.1298 187.567 98.7878 193.904C110.104 206.533 121.691 218.845 133.551 230.885C131.242 233.555 128.888 236.226 126.58 238.897C110.058 225.861 93.5371 212.824 77.0157 199.788C73.8472 197.299 70.5429 194.628 68.4607 191.143C66.4238 187.748 65.6995 183.855 65.2922 180.098C62.3047 155.203 69.2753 131.123 84.1219 114.873Z" fill="#444748"/>
<path d="M89.6894 275.334C93.039 292.58 97.339 309.599 102.59 326.347C106.709 328.429 111.597 327.479 116.169 327.116C121.329 326.709 126.534 327.117 131.694 327.388C148.669 328.158 165.778 326.8 182.436 323.36C184.156 322.997 186.057 322.545 187.143 321.142C187.822 320.282 188.048 319.15 188.275 318.109C190.945 305.163 190.493 291.584 187.007 278.82C185.242 272.392 182.707 266.01 182.979 259.356C183.16 255.554 185.287 248.357 179.448 250.213C174.424 251.842 169.581 253.562 164.421 254.603C160.573 255.373 156.68 255.871 152.742 256.278C152.335 254.603 151.022 252.431 150.479 251.571C149.257 249.579 147.582 247.768 145.5 246.682C143.418 245.596 140.838 245.324 138.665 246.184C136.221 247.18 134.501 249.488 133.596 251.933C132.872 253.924 132.645 256.006 132.464 258.089C130.563 258.315 128.617 258.541 126.715 258.858C118.477 260.171 110.33 262.434 101.956 262.479C97.9273 262.479 93.2652 262.253 90.7304 265.376C88.5125 268.047 89.0105 271.939 89.6894 275.334ZM134.863 257.862C134.863 257.817 134.908 257.772 134.908 257.772C135.497 256.052 136.13 254.286 136.719 252.566C136.99 251.797 137.262 251.027 137.76 250.348C139.208 248.538 142.15 248.538 144.097 249.76C146.088 250.982 147.356 253.019 148.578 255.011C148.804 255.373 149.121 255.961 149.438 256.595C144.595 257.002 139.706 257.364 134.863 257.862Z" fill="#B8996E"/>
<path d="M143.01 246.365C144.006 247.542 145.047 248.764 145.636 250.213C146.224 251.661 146.27 253.426 145.364 254.694C144.459 255.961 142.513 256.504 141.29 255.509C141.155 255.961 140.838 256.323 140.43 256.504C137.217 255.69 135.451 252.431 133.731 249.624C132.373 247.452 130.834 245.46 129.114 243.559C127.666 241.975 125.991 240.255 125.946 238.127C125.946 236.543 126.851 235.14 128.028 234.053C129.205 233.012 130.608 232.243 131.876 231.383C134.818 233.872 137.805 236.362 140.747 238.897C141.245 239.304 141.743 239.757 141.969 240.3C142.196 240.888 142.06 241.658 141.517 241.975C140.747 241.658 139.887 241.612 139.072 241.839C140.43 243.333 141.698 244.871 143.01 246.365Z" fill="#E8DBCE"/>
<path d="M155.911 29.5951C145.772 19.1843 134.999 8.32095 121.555 3.02504C104.4 -3.76459 83.4881 5.06192 74.6163 21.0854C74.2542 21.7191 73.8921 22.2623 73.53 22.8055C73.53 23.1676 73.4848 23.5297 73.53 23.9371C69.1847 34.6194 67.0119 46.4334 65.7898 57.6589C63.0287 82.5995 64.975 107.449 71.1762 131.711C73.8015 141.896 89.5083 139.632 90.5494 130.127C95.8906 135.694 108.112 132.752 108.112 122.658C108.067 94.4587 111.144 66.5307 116.984 38.9648C117.346 38.0595 117.663 37.0637 117.889 36.0226C118.432 34.9815 119.066 33.9405 119.7 32.9446C124.498 42.2238 136.13 47.2029 146.36 43.8533C147.356 43.5365 148.261 43.1291 149.166 42.6765C151.022 42.6312 152.878 42.2238 154.643 41.4543C153.195 37.9237 153.331 33.8047 155.911 29.5951Z" fill="#893D33"/>
<path d="M194.385 109.577C195.562 106.273 196.739 102.968 197.916 99.7093C198.549 97.9893 199.138 96.2692 200.043 94.6397C201.582 91.7428 203.891 89.2985 206.652 87.5332C208.01 86.6732 209.82 85.9943 211.178 86.8995C211.857 87.0806 212.491 87.488 213.124 87.8954C214.347 88.6649 215.569 89.4796 216.791 90.2491C217.289 90.5659 217.832 90.928 218.194 91.3807C218.873 92.1954 219.054 93.2818 218.964 94.3229C218.828 95.3639 218.42 96.3145 217.968 97.265C215.523 102.38 211.631 106.635 208.825 111.569C207.784 113.424 206.878 115.325 205.701 117.091C204.343 119.128 202.578 120.893 200.858 122.613C200.677 122.794 200.496 122.975 200.27 123.02C199.862 123.156 199.409 122.885 199.047 122.658C197.599 121.708 196.105 120.757 194.657 119.807C194.159 119.49 193.661 119.173 193.344 118.675C193.027 118.177 192.891 117.634 192.846 117.045C192.62 114.511 193.48 112.021 194.385 109.577Z" fill="#EDEDED"/>
<path d="M205.068 116.231C204.163 118.132 203.167 120.305 201.175 121.029C198.867 121.889 196.377 120.395 194.34 118.992C193.48 118.403 192.575 117.77 192.077 116.819C191.308 115.371 191.715 113.651 192.167 112.066C193.299 108.219 194.793 104.507 196.377 100.796C197.69 97.6724 199.093 94.6397 200.587 91.607C201.039 90.7017 201.492 89.7512 202.171 89.027C203.71 87.3975 206.199 86.8996 208.372 87.3069C210.59 87.669 212.582 88.8006 214.528 89.9322C215.66 90.6112 216.836 91.3354 217.425 92.5123C219.1 95.6808 214.121 100.705 212.582 103.059C209.911 107.268 207.241 111.614 205.068 116.231Z" fill="#333333"/>
<path d="M194.476 109.667C195.97 105.367 197.78 101.203 199.636 97.0387C200.722 94.5944 201.854 92.0597 203.891 90.3849C204.525 89.887 205.249 89.4343 206.019 89.4343C206.562 89.4343 207.105 89.6154 207.603 89.7964C210.319 90.8375 212.944 92.0597 215.479 93.5534L215.615 93.6892C212.265 98.804 209.232 104.145 206.516 109.622C205.294 112.112 204.072 114.692 201.99 116.502C201.718 116.729 201.447 116.955 201.085 117.045C200.677 117.181 200.179 117.091 199.772 117C198.957 116.819 198.097 116.638 197.328 116.367C196.287 116.05 195.155 115.642 194.521 114.737C193.978 114.013 193.842 113.107 193.887 112.202C193.887 111.342 194.159 110.482 194.476 109.667Z" fill="white"/>
<path d="M197.101 117.362C197.826 118.63 195.879 118.72 195.336 117.77C194.566 116.548 196.558 116.502 197.101 117.362Z" fill="white"/>
<defs>
<linearGradient id="paint0_linear" x1="0.267701" y1="490.09" x2="157.013" y2="497.807" gradientUnits="userSpaceOnUse">
<stop stop-color="white"/>
<stop offset="1"/>
</linearGradient>
<linearGradient id="paint1_linear" x1="0.267701" y1="490.09" x2="157.013" y2="497.807" gradientUnits="userSpaceOnUse">
<stop/>
<stop offset="1"/>
</linearGradient>
</defs>
</svg>
