<svg width="181" height="501" viewBox="0 0 181 501" fill="none" xmlns="http://www.w3.org/2000/svg">
<path d="M57.3581 500.577C67.2988 500.849 77.2395 500.668 87.1802 500.486C114.914 499.987 142.648 499.442 170.383 498.943C174.695 498.852 180.278 497.99 180.505 495.085C180.732 492.452 176.329 490.772 172.607 490.001C159.307 487.232 145.327 486.687 131.528 486.279C111.238 485.643 90.9024 485.099 70.6124 484.69C57.9482 484.418 44.9209 484.282 33.1192 487.232C26.719 488.866 17.2776 495.629 27.5814 498.898C30.4411 499.805 36.1604 499.351 39.247 499.624C45.284 500.032 51.3211 500.395 57.3581 500.577Z" fill="url(#paint0_linear)"/>
<path opacity="0.22" d="M57.3581 500.577C67.2988 500.849 77.2395 500.668 87.1802 500.486C114.914 499.987 142.648 499.442 170.383 498.943C174.695 498.852 180.278 497.99 180.505 495.085C180.732 492.452 176.329 490.772 172.607 490.001C159.307 487.232 145.327 486.687 131.528 486.279C111.238 485.643 90.9024 485.099 70.6124 484.69C57.9482 484.418 44.9209 484.282 33.1192 487.232C26.719 488.866 17.2776 495.629 27.5814 498.898C30.4411 499.805 36.1604 499.351 39.247 499.624C45.284 500.032 51.3211 500.395 57.3581 500.577Z" fill="url(#paint1_linear)"/>
<path d="M40.0186 75.26C37.5221 76.8033 35.5703 78.9367 33.7546 81.0701C21.6351 95.5045 14.0548 112.254 7.38226 128.958C3.79635 137.946 0.391996 147.296 1.07287 156.647C1.16365 157.691 1.29981 158.78 1.84451 159.688C2.34382 160.596 3.20624 161.277 4.06868 161.912C5.47581 162.956 6.92833 163.955 8.42624 164.817C9.56103 165.498 10.7866 166.134 12.1937 166.224C13.4193 166.27 14.6449 165.907 15.7797 165.362C20.3642 163.183 23.1331 158.871 24.6764 154.604C26.2197 150.292 26.7644 145.844 28.4439 141.577C29.851 137.991 31.9844 134.677 33.9362 131.273C36.6597 126.507 39.0654 121.65 41.4258 116.748C44.0131 111.437 46.6004 106.126 48.4614 100.634C50.0955 95.9131 51.1849 91.0109 53.7268 86.5171C54.9978 84.2929 56.5865 82.2049 57.3128 79.8446C60.1724 70.8117 45.8287 71.7195 40.0186 75.26Z" fill="#4D4D4D"/>
<path d="M139.244 482.239C139.607 481.74 139.88 481.195 140.061 480.559C136.793 442.068 136.43 403.576 134.297 365.084C132.345 329.724 136.43 293.638 136.067 258.051C137.338 245.704 135.295 233.131 130.03 221.556C129.712 220.83 129.349 220.104 128.713 219.559C126.716 217.834 123.266 218.742 120.588 219.65C94.9877 228.365 64.7571 226.322 41.4259 214.021C36.796 219.831 35.4796 226.958 34.3448 233.812C32.4838 244.933 30.4866 256.054 29.9873 267.22V267.265C29.8965 269.671 29.8057 272.077 29.8965 274.483C30.2142 288.418 33.4824 302.126 36.0243 315.834C37.7038 324.776 39.1563 333.809 39.2925 342.887C39.4287 350.332 38.1577 357.095 40.1549 364.358C45.1026 382.242 45.1026 401.76 47.1906 420.053C49.4148 439.616 51.6389 459.225 53.4546 478.835C53.5454 479.606 53.5908 480.378 53.6816 481.195C53.9993 481.286 55.588 481.558 57.7214 481.921C57.4944 481.967 57.2221 481.967 56.9951 482.012C52.7283 484.826 48.0076 487.187 43.06 488.957C41.6075 489.456 40.1095 489.955 39.0655 490.954C38.0215 491.953 37.5676 493.632 38.5662 494.722C39.4287 495.629 40.972 495.766 42.3337 495.766C52.7283 495.856 63.0776 495.085 73.2906 493.451C73.8807 493.36 74.5616 493.224 75.0155 492.86C75.3786 492.543 75.5148 492.134 75.651 491.68C76.695 488.231 76.0141 484.418 73.8353 481.422C73.563 481.422 73.2906 481.422 73.0183 481.376C73.0637 481.286 73.109 481.195 73.109 481.059C74.5616 442.975 76.0141 404.937 77.512 366.854C78.1475 350.831 76.7403 296.724 81.6426 281.473C83.6852 281.654 85.6825 281.791 87.7251 281.972C98.846 332.357 112.055 420.597 123.176 470.936C124.174 475.385 125.354 480.151 128.895 483.011C128.895 483.011 128.895 483.011 128.94 483.011C127.352 483.283 125.763 483.555 124.174 483.918C120.679 486.778 116.776 489.229 112.554 491.181C111.329 491.771 110.058 492.316 109.195 493.314C108.378 494.313 108.197 495.856 109.195 496.719C110.058 497.49 111.465 497.445 112.645 497.354C121.905 496.673 131.074 495.175 140.016 492.906C140.561 492.77 141.105 492.634 141.468 492.225C141.741 491.907 141.832 491.499 141.922 491.136C142.422 488.004 141.423 484.735 139.244 482.239Z" fill="#4D4D4D"/>
<path d="M140.969 183.518C140.742 172.443 140.333 161.367 139.652 150.292C138.79 135.857 138.245 121.014 135.613 106.716C133.933 97.7286 130.483 88.1511 122.131 82.8403C120.043 78.5281 117.002 74.8968 112.418 72.8541C111.011 70.7661 108.287 70.4938 106.108 71.4925C104.383 70.63 102.114 70.4937 100.298 71.9463C98.8457 73.081 97.5747 74.3067 96.3492 75.5777C90.8114 75.0783 85.2283 74.1251 79.7359 75.0783C74.1074 76.0315 66.1639 74.6699 59.1736 74.8968C58.2204 71.9464 54.0444 69.9037 51.4117 72.9903C49.4599 75.2145 47.735 77.5748 46.1009 79.9352C44.6484 81.6147 43.4228 83.5665 42.3788 85.7907C35.7063 97.2293 31.7119 109.848 29.4423 122.785C21.5442 151.472 20.9995 182.02 22.3159 211.842C22.3159 212.024 22.2705 212.251 22.3159 212.433L23.2237 236.853C23.496 244.388 23.2237 252.15 24.9485 259.549C27.5812 270.806 35.5247 268.4 49.9138 269.399C52.728 269.58 55.3608 271.396 54.9976 269.58C56.1778 269.626 57.358 269.671 58.5835 269.716C58.9921 269.716 59.446 269.762 59.8545 269.762C59.9907 269.762 60.0815 269.762 60.2176 269.762C65.0745 269.898 69.9768 269.853 74.3797 269.762C74.8336 269.762 75.2422 269.762 75.6961 269.716C76.9216 271.532 79.5997 272.621 81.9147 271.986C83.1856 271.623 84.4566 271.305 85.7276 270.987C86.1815 271.124 86.6808 271.214 87.2255 271.26C88.2695 271.305 89.3135 271.351 90.3575 271.396C92.1277 272.485 94.4427 272.667 96.1676 271.396C104.792 271.169 113.28 269.853 121.496 267.538L128.441 266.766C129.212 266.675 129.984 266.448 130.71 266.085C133.162 266.358 135.93 265.223 136.657 262.545C143.511 236.308 144.101 209.845 140.969 183.518Z" fill="#333333"/>
<path d="M101.751 24.9209C101.751 12.983 90.3576 3.3146 76.2409 3.3146C62.1696 3.3146 50.731 12.983 50.731 24.9209C50.731 26.9181 51.0941 28.8245 51.6842 30.6856C51.6842 31.1395 51.7296 31.6388 51.7296 32.1381C51.6388 36.4503 51.8658 40.7625 52.7736 45.0293C54.5892 53.2905 59.2645 60.9617 68.1159 65.6824C71.0663 67.2257 74.4707 68.4512 78.0112 68.4058C82.7773 68.3604 87.1349 66.1363 90.403 63.3674C101.297 54.2438 102.25 40.5355 101.479 27.5536C101.66 26.6911 101.751 25.8288 101.751 24.9209Z" fill="#EDD5BE"/>
<path d="M108.106 28.053C107.833 24.5578 107.289 21.1989 106.381 17.8399V17.7945C105.791 14.3447 105.246 10.9404 104.701 7.49068C104.565 6.53746 103.975 5.72045 102.977 5.53888C99.1636 4.81262 95.3508 4.26781 91.4925 3.85928C88.9052 2.49754 85.637 1.86218 82.732 2.13453C80.644 1.86218 78.5106 1.95287 76.7403 2.17983C75.6509 2.316 74.4708 2.54297 73.336 2.9061C71.3388 2.86071 69.3415 2.95158 67.3897 3.13314C63.1229 -0.861296 53.273 0.273449 50.3226 5.22111C49.7325 6.21972 49.4147 7.17296 49.3239 8.08079C45.4657 9.03401 41.6528 11.3942 40.518 15.3433C39.9279 17.2951 40.2003 19.474 41.4259 21.1081C42.1067 22.0613 43.1053 22.5605 44.1493 23.0144C44.5579 23.5137 45.0572 24.0131 45.5565 24.467C46.0104 25.2387 46.6459 25.8741 47.5991 26.4188C47.9622 26.6458 48.3707 26.6911 48.7339 26.6911C49.0062 26.8727 49.2786 27.0089 49.5055 27.1451C51.2304 28.1891 52.8645 26.2373 52.5013 24.6032C52.7283 24.1493 52.7737 23.6046 52.6829 23.0599C53.4092 22.1974 54.09 21.1988 54.7709 20.4725C55.5879 20.064 56.3596 19.6556 57.222 19.2925C57.3128 19.2471 57.4036 19.247 57.4944 19.2016C57.6306 19.1562 57.7213 19.1108 57.8575 19.0654C59.1285 18.6115 60.3541 18.5208 61.5342 18.7023C61.6704 18.7477 61.7612 18.7931 61.8973 18.7931C62.8506 19.0654 63.8038 19.3378 64.8024 19.5648C65.3925 19.7918 66.028 20.064 66.618 20.3364C67.2535 20.6087 67.889 20.518 68.4337 20.2456C74.153 21.1081 80.1446 21.1535 85.9547 20.8357C88.6328 23.1961 93.4444 22.6059 96.0771 20.3364L96.1224 20.2911C96.2132 21.2897 95.9862 22.3336 95.3962 23.2868C95.033 23.8769 95.0784 24.8755 95.487 25.4202C96.6671 26.8727 97.2118 28.4615 97.121 30.3225C97.0757 31.8204 98.7097 32.5012 99.8899 32.2289C100.253 32.1381 100.208 33.4091 100.071 34.6801C99.9353 34.3623 99.5722 34.1354 99.1183 34.2716C96.4856 35.0886 93.8075 35.9056 91.1294 36.6319C90.8571 35.7694 90.3123 35.0431 89.3137 34.6346C87.8612 34.0445 85.9548 34.2716 84.4569 34.2716C81.3249 34.2716 78.1928 34.3169 75.0608 34.2716C74.6523 34.2716 74.38 34.4986 74.2892 34.7709C73.8353 34.7709 73.3814 34.7709 72.9728 34.7709C72.4735 34.7709 72.065 35.134 72.065 35.5879C72.065 36.6773 72.065 37.7213 72.1104 38.8107C71.5203 38.7653 70.9756 38.72 70.4309 38.72C69.2054 38.6746 67.9798 38.6745 66.7542 38.6745C66.7088 38.0844 66.6634 37.4943 66.618 36.9496C66.6634 36.4503 66.7088 35.9964 66.7088 35.4971C66.7088 35.0432 66.3003 34.6801 65.801 34.6801H65.5741C65.5287 34.6801 65.4833 34.6346 65.3925 34.6346C62.5782 34.4984 59.764 34.317 56.9497 34.1808C54.9979 34.09 52.3652 33.4545 50.5495 34.0899C47.8714 34.9978 48.2799 38.1298 48.5977 40.6718C48.3253 41.7611 48.28 42.8505 48.87 43.486C49.324 44.0307 49.9594 44.0761 50.5949 44.1668C52.6829 44.53 55.134 44.2123 57.222 44.2123C59.2646 44.2123 63.8038 45.1201 65.5287 43.6676C66.3003 42.9867 66.6181 41.7612 66.7088 40.3994C66.7542 40.3994 66.7996 40.3994 66.845 40.3994C66.8904 40.6718 67.072 40.8987 67.4351 40.9441C69.0238 41.2164 70.6579 41.3526 72.2466 41.2619C72.6097 42.5328 73.5175 43.6221 75.197 44.1668C77.3758 44.9385 80.3717 44.3484 82.6866 44.4392C84.003 44.4846 85.2739 44.4846 86.3633 44.0307C87.3165 43.9399 88.2697 43.8037 89.1776 43.6222C89.4045 43.5768 89.5861 43.3952 89.7222 43.2137C89.9946 43.1683 90.2669 42.9868 90.3577 42.7144C90.7662 41.4889 91.3563 39.6732 91.3563 37.9937C94.0798 37.1766 96.8487 36.4049 99.6176 35.6332C99.7992 35.5878 99.9353 35.4971 100.026 35.3609C99.8899 36.2233 99.7538 36.9951 99.7084 37.1312C99.2091 39.1285 98.3012 40.8079 97.2119 42.4874C96.7579 43.1682 96.9849 44.53 97.6657 45.0293C98.165 45.3924 98.6644 45.6193 99.1183 45.8463C98.4828 48.8875 96.8941 51.7926 95.26 54.5615C93.4443 57.6481 88.9052 60.3716 86.1363 62.7773C83.3675 65.2285 79.5546 66.9534 75.651 66.6811C75.1516 66.6357 74.6069 66.5902 74.153 66.3633C73.1998 65.9094 72.8367 64.8653 72.5189 63.9121C72.2466 62.9589 71.9288 61.9603 70.9756 61.4156C70.0678 60.8709 68.4337 61.3702 68.5699 62.3234C68.6607 62.9589 69.3869 63.4128 69.3869 64.0483C69.3869 64.7745 68.3883 65.183 67.5713 65.0015C66.7996 64.8199 66.2549 64.2299 65.7102 63.6398C64.4847 62.278 63.2591 60.9162 62.0789 59.5999C61.5796 59.0098 60.9895 58.556 60.2179 58.8737C61.2165 61.0071 63.2137 63.0496 64.6209 65.0015C65.801 66.5902 67.0266 68.2243 68.7968 69.3137C70.9302 70.5846 73.5629 70.9478 76.1502 70.9932C79.2822 71.0385 82.5504 70.6754 85.0469 68.9959C86.8626 67.8157 91.2656 64.2753 92.4004 62.5504C96.1679 56.7857 98.5736 52.8366 100.616 46.4364C100.616 46.3456 100.662 46.3003 100.662 46.2095C103.975 46.3003 105.927 42.1697 106.789 38.6745C107.47 35.8149 107.788 32.6829 107.198 29.914C107.833 29.5963 108.197 28.9608 108.106 28.053ZM64.2577 40.8987C64.2123 41.0348 64.1215 41.171 64.0761 41.3072C61.3981 41.5795 58.6292 41.9427 55.9965 41.8065C54.6801 41.7611 53.6361 41.4887 52.9099 40.8987V40.8534C52.9099 39.31 52.9553 37.7214 52.9553 36.1781C54.7255 36.1781 56.4504 36.1781 58.2207 36.1781C60.3087 36.2234 62.3513 36.3141 64.4393 36.3595C64.5301 37.1312 64.6209 38.0391 64.6209 38.8561C64.4847 39.537 64.3939 40.2178 64.2577 40.8987ZM87.9066 39.3101C87.5435 40.808 87.0895 41.8519 85.6824 42.4419C83.3221 42.7143 80.9617 42.7597 78.6014 42.5781C76.6495 42.3965 75.9687 42.3967 75.7871 40.581C75.7417 40.2633 75.7417 39.9454 75.7417 39.6277C75.8325 39.4007 75.8325 39.1284 75.7417 38.9014C75.7417 38.1298 75.7871 37.3128 75.8325 36.5411C79.6908 36.5411 83.549 36.5412 87.4073 36.5866C87.6796 36.7681 87.8612 36.9951 87.9974 37.2674C87.9974 37.8121 87.9974 38.4022 87.9974 38.9469C87.952 39.083 87.9066 39.1739 87.9066 39.3101Z" fill="#333333"/>
<path d="M49.5508 115.25C47.0089 111.074 44.0131 107.306 41.0172 103.493C38.3391 100.089 38.0668 95.4137 34.3901 92.6902C30.8042 90.0575 26.1289 90.0122 21.8621 90.4207C21.045 90.5115 20.3188 90.7839 19.7287 91.1924C19.3202 91.374 18.957 91.6462 18.6393 91.964C17.3229 92.2363 16.052 92.6903 14.6903 93.1896C12.0576 94.2336 11.2405 96.8662 12.5115 99.3174C18.2762 110.801 24.3132 122.286 33.6185 131.364C34.844 132.589 36.4781 132.635 37.8399 132.09C38.6115 132.362 39.4739 132.544 40.3818 132.544C42.7875 132.544 45.284 132.09 47.6444 131.681C50.0955 131.273 52.3651 130.819 53.636 128.413C55.9056 124.237 51.6842 118.7 49.5508 115.25Z" fill="#909294"/>
<path d="M56.2686 123.919C48.8244 113.116 41.471 102.268 34.0268 91.4647C33.0282 90.0121 31.3941 90.0575 30.3047 90.8291C26.4011 90.6475 22.5428 90.6022 18.6392 90.7384C16.5512 90.8292 14.2362 90.7383 13.1922 92.8263C12.8745 93.4618 13.3738 94.0973 14.0546 94.0973C18.9569 94.1427 23.8592 94.2335 28.7615 94.2789C28.9884 94.642 29.4423 94.7328 29.8054 94.5512C37.1588 105.264 44.5123 115.976 51.8203 126.734C53.7267 129.639 58.2204 126.734 56.2686 123.919Z" fill="#606060"/>
<path d="M96.8939 162.23C91.0838 158.235 85.1376 154.513 79.0097 151.064C74.516 146.161 69.2506 141.94 63.4405 138.536C61.5795 137.446 59.8092 137.809 58.629 138.899C58.3567 138.944 58.0389 138.989 57.7666 139.126C56.8588 138.536 55.9509 138.036 55.0885 137.809C54.4984 138.082 53.9537 138.354 53.409 138.717C53.3182 138.763 52.9551 139.035 52.6827 139.216C52.4104 139.443 51.8657 139.852 51.8657 139.852C51.6387 140.079 51.3664 140.26 51.1395 140.487C51.0487 142.666 52.365 145.707 53.6814 148.158L57.3127 154.74C57.4489 155.013 57.585 155.33 57.7666 155.603C57.812 155.693 57.8574 155.784 57.9028 155.83L63.6674 166.315C64.0306 166.451 64.4391 166.633 64.8022 166.86C66.0278 168.721 67.2988 170.582 68.6605 172.397C70.7031 178.253 75.2423 183.064 80.9616 186.333C88.315 190.509 101.705 196.591 107.107 186.65C112.418 176.982 104.474 167.404 96.8939 162.23Z" fill="#4D4D4D"/>
<path d="M120.997 98.2734C119.907 96.1854 117.229 95.3683 115.141 96.0945C113.462 96.0491 111.646 96.3669 109.694 97.2748C98.4373 102.268 95.85 116.475 93.4442 127.142C90.0399 142.258 87.8157 157.827 90.2214 173.305C90.4938 175.121 91.5832 176.256 92.8541 176.8C92.7633 178.525 92.7179 180.25 92.7633 181.975C92.8087 184.835 94.8967 186.06 97.0301 186.015C97.8472 186.378 98.6188 186.56 99.2997 186.605C100.208 187.331 101.342 187.74 102.659 187.604C116.639 185.924 115.595 167.904 117.819 157.6C119.272 150.791 121.315 144.255 123.811 137.764C126.126 131.681 128.532 125.463 128.895 118.881C129.258 112.299 126.58 102.586 120.997 98.2734Z" fill="#4D4D4D"/>
<path d="M51.5481 141.667C52.002 141.577 52.4105 141.44 52.819 141.214C54.7255 140.215 55.4972 138.263 55.8603 136.22C56.3596 133.315 56.0419 130.32 55.8603 127.369C54.6801 125.463 53.273 123.692 51.3211 122.467C50.958 122.875 50.6403 123.329 50.2771 123.738L51.3211 126.416C49.6871 124.6 47.7352 123.012 45.6472 121.695C43.6046 120.424 40.8357 119.471 39.2924 120.924C37.7945 122.331 38.7023 124.963 39.7917 127.006C42.833 132.408 46.9636 137.174 51.5481 141.667Z" fill="#EDD5BE"/>
<path d="M13.2831 123.511C13.4193 122.24 13.5554 120.924 14.2817 119.925C15.1441 118.745 16.6874 118.155 17.5953 117.02C18.7755 115.613 18.8208 113.57 19.774 112.027C20.6365 110.574 22.1798 109.621 23.8593 109.485C25.5388 109.349 27.2182 110.075 28.2622 111.346C30.1233 113.616 29.8055 116.975 29.0339 119.789C27.9899 123.738 26.4012 127.505 24.2678 131C23.8593 131.681 23.4054 132.362 22.7699 132.771C21.4989 133.542 19.9102 133.134 18.5031 132.725C16.5967 132.181 13.6008 131.999 12.8292 129.866C12.1937 128.05 13.2831 125.372 13.2831 123.511Z" fill="#EDD5BE"/>
<path d="M90.5845 73.8073C80.6892 72.8995 70.6123 73.6712 60.6716 72.718C59.9453 72.6272 58.9921 73.3534 58.9013 74.0797C58.5382 76.44 58.4928 76.2584 58.7652 78.6188C58.8106 79.1181 59.0829 79.5267 59.4006 79.799C59.6276 86.8347 60.3993 93.8249 61.534 100.77C62.5327 106.852 63.1681 113.752 66.3001 119.153C66.8448 120.107 68.1612 120.016 68.7513 119.153C74.1528 111.119 79.736 103.176 85.5007 95.3682C88.2242 91.6915 91.1292 88.1057 93.8073 84.3836C94.9875 82.7495 97.5747 80.2984 97.3024 77.8927C96.8031 74.3975 93.5349 74.0797 90.5845 73.8073Z" fill="#4D4D4D"/>
<defs>
<linearGradient id="paint0_linear" x1="23.1993" y1="490.435" x2="180.441" y2="496.951" gradientUnits="userSpaceOnUse">
<stop stop-color="white"/>
<stop offset="1"/>
</linearGradient>
<linearGradient id="paint1_linear" x1="23.1993" y1="490.435" x2="180.441" y2="496.951" gradientUnits="userSpaceOnUse">
<stop/>
<stop offset="1"/>
</linearGradient>
</defs>
</svg>
