<svg width="534" height="501" viewBox="0 0 534 501" fill="none" xmlns="http://www.w3.org/2000/svg">
<path d="M317.054 239.352V494.772" stroke="#2A272D" stroke-width="1.9882" stroke-miterlimit="10"/>
<path d="M501.811 239.352V494.772" stroke="#2A272D" stroke-width="1.9882" stroke-miterlimit="10"/>
<path d="M207.814 318.234C207.814 318.234 243.267 310.197 248.604 333.276C253.214 353.08 204.993 352.322 204.993 352.322L98.9675 352.959C98.9675 352.959 59.0259 357.569 39.2825 311.501C19.5392 265.433 0.523709 144.79 0.523709 144.79C0.523709 144.79 -2.3271 128.2 11.5023 125.774C27.758 122.923 30.9424 158.043 30.9424 158.043C30.9424 158.043 55.5078 306.952 91.1732 314.231C96.6625 315.353 101.03 319.508 106.64 319.447L207.814 318.234Z" fill="#FFEEE3"/>
<path d="M302.042 197.954L335.524 195.649C338.253 195.467 340.861 196.711 342.408 198.925L361.12 227.221L345.198 227.979L336.221 214.18C336.221 214.18 310.352 220.639 300.798 214.18L302.042 197.954Z" fill="#F2C09E"/>
<path d="M167.174 106.274L211.908 189.402L304.862 192.374V222.944L206.691 227.251C193.711 227.827 181.398 221.61 174.119 210.843L129.447 130.627L167.174 106.274Z" fill="#EFC375"/>
<path d="M304.862 192.344V222.914L294.49 223.369V192.01L304.862 192.344Z" fill="#F7E5DA"/>
<path d="M256.156 438.756L261.403 475.514L287.849 473.876L284.058 435.936L256.156 438.756Z" fill="#FCC9A7"/>
<path d="M255.489 471.783C256.065 470.055 258.127 469.357 259.613 470.419C262.525 472.481 267.65 474.937 275.02 473.997C282.693 473.027 285.392 468.933 286.332 466.051C286.817 464.535 288.455 463.716 289.941 464.292L337.616 482.974C340.528 484.096 342.832 486.341 344.076 489.191C345.228 491.86 343.318 494.863 340.376 494.923L259.644 496.106C256.459 496.167 253.912 493.528 254.033 490.344L254.609 474.755C254.609 474.482 254.67 474.24 254.761 473.997L255.489 471.783Z" fill="#1F252A"/>
<path d="M175.818 99.1466L183.4 111.308C183.886 112.46 184.098 115.251 182.005 116.282L179.064 118.405L172.755 108.76L175.818 99.1466Z" fill="#FFEEE3"/>
<path d="M161.686 112.006L159.29 110.853C151.405 107.002 148.129 97.4788 151.981 89.5936L177.578 37.1873L205.995 51.0773L176.425 109.761C173.271 116.282 168.206 115.19 161.686 112.006Z" fill="#FCC9A7"/>
<path d="M227.193 61.419C218.853 78.4632 198.261 85.5599 181.216 77.2198C164.172 68.8796 157.076 48.3174 165.416 31.2429C173.756 14.1988 194.318 7.10209 211.393 15.4422C228.467 23.7823 235.533 44.3748 227.193 61.419Z" fill="#FCC9A7"/>
<path d="M185.705 95.3254C177.608 91.3828 174.241 81.5869 178.214 73.4894L192.65 43.9199L227.466 60.9338L215.699 85.0443C210.24 96.1442 196.805 100.784 185.705 95.3254Z" fill="#FCC9A7"/>
<path d="M222.947 67.8789L224.828 81.1018C224.979 83.1944 222.765 84.5591 220.824 83.619L212.272 81.2838L222.947 67.8789Z" fill="#FCC9A7"/>
<path d="M192.802 61.2674C192.802 61.2674 204.842 62.0559 206.813 43.465C206.813 43.465 227.739 56.8092 236.261 51.5019C236.261 51.5019 238.87 -1.0864 195.41 0.763587C151.95 2.61358 148.554 49.5306 148.554 49.5306L172.937 71.5485L192.802 61.2674Z" fill="#1C2226"/>
<path d="M194.531 62.0255C192.256 66.7263 186.585 68.6673 181.884 66.3624C177.214 64.0575 175.242 58.4165 177.547 53.7157C179.822 49.0149 185.493 47.074 190.194 49.3789C194.864 51.6838 196.805 57.3247 194.531 62.0255Z" fill="#FCC9A7"/>
<path d="M167.993 55.0503L161.534 70.1232C161.534 70.1232 175.727 81.4961 182.884 66.8478L172.573 63.9364L167.993 55.0503Z" fill="#1C2226"/>
<path d="M206.813 43.4649C206.813 43.4649 235.169 65.3615 246.36 47.0132C255.277 32.365 245.359 22.8724 231.045 25.2379C224.858 26.2691 221.795 22.0839 216.942 18.7781L206.813 43.4649Z" fill="#1C2226"/>
<path d="M181.338 125.744C181.338 125.744 180.701 112.37 176.455 107.73C172.209 103.089 149.585 90.2911 149.585 90.2911C149.585 90.2911 117.043 99.723 97.057 136.905C81.4989 165.868 66.8506 239.17 66.8506 239.17L160.745 252.787C168.843 198.015 184.007 173.055 181.338 125.744Z" fill="#FFD686"/>
<path d="M151.162 87.7132L147.25 89.4722C145.855 90.1091 145.551 91.9894 146.704 93.0206L171.512 115.099C172.513 116.009 174.09 115.736 174.787 114.584L177.577 109.761C178.093 108.852 177.881 107.699 177.062 107.032L153.346 88.0468C152.739 87.5009 151.89 87.3796 151.162 87.7132Z" fill="#FFEEE3"/>
<path d="M291.7 202.928L325.182 200.623C327.912 200.441 330.52 201.684 332.067 203.898L349.232 228.312L333.189 230.374L325.88 219.123C325.88 219.123 300.01 225.583 290.457 219.123L291.7 202.928Z" fill="#FCC9A7"/>
<path d="M148.159 112.46L198.685 197.712L294.521 200.35V227.918L191.103 232.437C181.398 232.861 172.149 228.221 166.69 220.154L110.432 136.814L148.159 112.46Z" fill="#FFD686"/>
<path d="M294.521 200.35V227.887L284.149 228.342V200.35H294.521Z" fill="#FFEEE3"/>
<path d="M66.8504 239.17L251.546 265.949C265.679 268.011 276.597 279.445 277.962 293.669L291.73 450.978L250.485 453.647L230.65 317.294L114.677 320.296C83.197 320.296 59.0562 292.334 63.6357 261.188L66.8504 239.17Z" fill="#54585A"/>
<path d="M394.208 227.251H296.795V233.559H394.208V227.251Z" fill="#2A272D"/>
<path d="M394.239 233.559L425.749 141.515L419.138 139.937L388.234 228.343L394.239 233.559Z" fill="#2A272D"/>
<path d="M184.158 94.4762C184.158 94.4762 175.393 89.2901 175.393 78.3722C175.393 78.3722 169.934 90.2 181.065 100.602L184.158 94.4762Z" fill="#F2C09E"/>
<path d="M40.3742 500.716C41.83 500.716 43.1644 499.715 43.5586 498.229L91.7797 308.105C95.783 292.365 109.885 281.356 126.141 281.356C141.911 281.356 155.923 291.94 160.229 307.104C177.092 366.516 216.336 496.136 216.73 497.44C217.245 499.169 219.095 500.17 220.824 499.624C222.553 499.109 223.554 497.259 223.008 495.53C222.613 494.226 183.369 364.666 166.538 305.314C161.442 287.33 144.823 274.774 126.111 274.774C106.853 274.774 90.1117 287.815 85.3806 306.467L37.1595 496.622C36.7046 498.381 37.7661 500.17 39.5251 500.625C39.8283 500.686 40.1013 500.716 40.3742 500.716Z" fill="#1F252A"/>
<path d="M166.719 220.124L137.756 177.271" stroke="#EFC375" stroke-width="0.7847" stroke-miterlimit="10" stroke-linecap="round" stroke-linejoin="round"/>
<path d="M533.716 233.559H281.359V244.932H533.716V233.559Z" fill="#FFEEE3"/>
<path d="M317.054 272.561H501.81" stroke="#2A272D" stroke-width="1.9882" stroke-miterlimit="10"/>
<path d="M183.703 170.326L155.953 125.593" stroke="#EFC375" stroke-width="0.7847" stroke-miterlimit="10" stroke-linecap="round" stroke-linejoin="round"/>
</svg>
