<svg width="51" height="51" viewBox="0 0 51 51" fill="none" xmlns="http://www.w3.org/2000/svg">
<path d="M13.1507 10.3445L9.0411 6.25777L5.82192 9.47694L9.90868 13.5637L13.1507 10.3445ZM6.84931 23.2669H0V27.8331H6.84931V23.2669ZM27.3973 0.550003H22.831V7.28516H27.3973V0.550003V0.550003ZM44.4064 9.47694L41.1872 6.25777L37.1005 10.3445L40.3196 13.5637L44.4064 9.47694ZM37.0776 40.7555L41.1644 44.8651L44.3836 41.6459L40.274 37.5591L37.0776 40.7555ZM43.379 23.2669V27.8331H50.2283V23.2669H43.379ZM25.1142 11.8514C17.5571 11.8514 11.4155 17.9929 11.4155 25.55C11.4155 33.1071 17.5571 39.2486 25.1142 39.2486C32.6712 39.2486 38.8128 33.1071 38.8128 25.55C38.8128 17.9929 32.6712 11.8514 25.1142 11.8514ZM22.831 50.55H27.3973V43.8148H22.831V50.55ZM5.82192 41.6231L9.0411 44.8422L13.1279 40.7327L9.90868 37.5135L5.82192 41.6231Z" fill="black"/>
</svg>
