<svg width="32" height="32" viewBox="0 0 32 32" fill="none" xmlns="http://www.w3.org/2000/svg">
<path d="M0.745361 4.88889V4H14.1739V4.88889H11.3445L16.7338 21.284L21.5843 4.88889H18.5752V4H24.6382V4.88889H22.6621L16.0152 27.5062H10.8953L2.58673 4.88889H0.745361Z" fill="black"/>
<path d="M27.7482 28C26.4608 28 25.4877 27.5885 24.829 26.7654C24.2002 25.9095 23.8859 24.8889 23.8859 23.7037C23.8859 22.4856 24.2152 21.465 24.8739 20.642C25.5626 19.8189 26.5207 19.4074 27.7482 19.4074C28.9758 19.4074 29.9489 19.7531 30.6675 20.4444C31.3861 21.1358 31.7454 22.1728 31.7454 23.5556C31.7454 24.9383 31.401 26.0247 30.7124 26.8148C30.0537 27.6049 29.0656 28 27.7482 28Z" fill="black"/>
</svg>
