<svg width="44" height="50" viewBox="0 0 44 50" fill="none" xmlns="http://www.w3.org/2000/svg">
<path fill-rule="evenodd" clip-rule="evenodd" d="M38.625 0H5.125C2.3 0 0 2.3 0 5.15V38.95C0 41.8 2.3 44.1 5.125 44.1H33.475L32.15 39.475L35.35 42.45L38.375 45.25L43.75 50V5.15C43.75 2.3 41.45 0 38.625 0ZM27.325 30.625C28.075 31.575 28.975 32.65 28.975 32.65C34.5 32.475 36.625 28.85 36.625 28.85C36.625 20.8 33.025 14.275 33.025 14.275C29.425 11.575 26 11.65 26 11.65L25.65 12.05C29.9 13.35 31.875 15.225 31.875 15.225C29.275 13.8 26.725 13.1 24.35 12.825C22.55 12.625 20.825 12.675 19.3 12.875C19.169 12.875 19.0571 12.8941 18.931 12.9155L18.875 12.925C18 13 15.875 13.325 13.2 14.5C12.275 14.925 11.725 15.225 11.725 15.225C11.725 15.225 13.8 13.25 18.3 11.95L18.05 11.65C18.05 11.65 14.625 11.575 11.025 14.275C11.025 14.275 7.425 20.8 7.425 28.85C7.425 28.85 9.525 32.475 15.05 32.65C15.05 32.65 15.975 31.525 16.725 30.575C13.55 29.625 12.35 27.625 12.35 27.625C12.35 27.625 12.6 27.8 13.05 28.05C13.075 28.075 13.1 28.1 13.15 28.125C13.1875 28.15 13.225 28.1688 13.2625 28.1875C13.3 28.2063 13.3375 28.225 13.375 28.25C14 28.6 14.625 28.875 15.2 29.1C16.225 29.5 17.45 29.9 18.875 30.175C20.75 30.525 22.95 30.65 25.35 30.2C26.525 30 27.725 29.65 28.975 29.125C29.85 28.8 30.825 28.325 31.85 27.65C31.85 27.65 30.6 29.7 27.325 30.625ZM17.35 20.975C15.925 20.975 14.8 22.225 14.8 23.75C14.8 25.275 15.95 26.525 17.35 26.525C18.775 26.525 19.9 25.275 19.9 23.75C19.925 22.225 18.775 20.975 17.35 20.975ZM26.475 20.975C25.05 20.975 23.925 22.225 23.925 23.75C23.925 25.275 25.075 26.525 26.475 26.525C27.9 26.525 29.025 25.275 29.025 23.75C29.025 22.225 27.9 20.975 26.475 20.975Z" fill="black"/>
</svg>
