<svg width="50" height="50" viewBox="0 0 50 50" fill="none" xmlns="http://www.w3.org/2000/svg">
<path fill-rule="evenodd" clip-rule="evenodd" d="M0 25C0 11.2 11.2 0 25 0C38.75 0 50 11.2 50 25C50 38.8 38.75 50 25 50C11.2 50 0 38.8 0 25ZM23.8 18.05C20.25 11.75 16.45 6.45001 15.9 5.69999C9.94997 8.5 5.50003 14 4.04997 20.65L4.10175 20.6501C5.28336 20.6509 13.9607 20.6574 23.8 18.05ZM25 3.69999C30.4 3.69999 35.4 5.74999 39.15 9.05001C38.75 9.6 35.55 13.9 27.95 16.75C24.8748 11.0827 21.4907 6.34191 20.3415 4.73206C20.1828 4.50971 20.0667 4.34709 20 4.25C21.6 3.9 23.25 3.69999 25 3.69999ZM46.35 24.8C46.25 19.75 44.5 15.15 41.5 11.5C41.05 12.1 37.45 16.75 29.65 19.9C30.1494 20.8987 30.5988 21.9472 31.0482 22.9958L31.05 23C31.1252 23.1754 31.2003 23.3634 31.2755 23.5513C31.3503 23.7384 31.4252 23.9254 31.5 24.1C38.6 23.25 45.65 24.65 46.35 24.8ZM36.9 42.7C36.7 41.4 35.55 35.15 32.75 27.5C39.1443 26.4979 44.7644 28.0462 45.9159 28.3633L46.05 28.4C45.1 34.35 41.7 39.5 36.9 42.7ZM11.9 41.85C15.5 44.65 20.05 46.35 25 46.35C27.95 46.35 30.8 45.75 33.35 44.65C33.05 42.75 31.8 36.25 28.8 28.45C28.75 28.45 28.7 28.45 28.65 28.5C16.6 32.7 12.3 41.05 11.9 41.85ZM3.65 25.05V24.4C4.54998 24.45 14.95 24.55 25.6 21.35C26.2 22.55 26.8 23.75 27.35 25C27.2107 25.0557 27.0558 25.0959 26.8942 25.1379C26.7657 25.1712 26.6329 25.2057 26.5 25.25C15.7109 28.7319 9.87625 38.1302 9.18474 39.2442L9.15003 39.3C5.70002 35.5 3.65 30.5 3.65 25.05Z" fill="black"/>
</svg>
