<svg width="36" height="50" viewBox="0 0 36 50" fill="none" xmlns="http://www.w3.org/2000/svg">
<path fill-rule="evenodd" clip-rule="evenodd" d="M0.449951 9.35473C0.449951 4.18825 4.63821 0 9.8047 0H25.8563C31.0228 0 35.2111 4.18825 35.2111 9.35473C35.2111 12.6262 33.5318 15.5054 30.9882 17.1775C33.5318 18.8495 35.2111 21.7287 35.2111 25.0002C35.2111 30.1667 31.0228 34.3549 25.8563 34.3549H25.6531C23.2311 34.3549 21.024 33.4345 19.3626 31.9242V40.5437C19.3626 45.779 15.0649 50 9.85517 50C4.70153 50 0.449951 45.8245 0.449951 40.6453C0.449951 37.3739 2.1291 34.4948 4.67253 32.8227C2.1291 31.1507 0.449951 28.2715 0.449951 25.0002C0.449951 21.7287 2.12925 18.8495 4.67285 17.1775C2.12925 15.5054 0.449951 12.6262 0.449951 9.35473ZM9.8047 3.06424H16.2984V15.6452H9.8047C6.33054 15.6452 3.51419 12.8289 3.51419 9.35473C3.51419 5.88059 6.33054 3.06424 9.8047 3.06424ZM19.3626 15.6452H25.8563C29.3305 15.6452 32.1468 12.8289 32.1468 9.35473C32.1468 5.88059 29.3305 3.06424 25.8563 3.06424H19.3626V15.6452ZM16.2984 31.2905V18.7097H9.8047C6.33053 18.7097 3.51419 21.526 3.51419 25.0002C3.51419 28.461 6.30898 31.2691 9.76477 31.2906L9.8047 31.2905H16.2984ZM19.3626 25.0002C19.3626 28.4744 22.179 31.2907 25.6531 31.2907H25.8563C29.3305 31.2907 32.1468 28.4744 32.1468 25.0002C32.1468 21.526 29.3305 18.7097 25.8563 18.7097H25.6531C22.179 18.7097 19.3626 21.526 19.3626 25.0002ZM3.51419 40.6453C3.51419 37.1844 6.30899 34.3763 9.76477 34.3549L9.8047 34.3549H16.2984V40.5437C16.2984 44.0611 13.3983 46.9358 9.85517 46.9358C6.36816 46.9358 3.51419 44.1066 3.51419 40.6453Z" fill="black"/>
</svg>
