<svg width="52" height="51" viewBox="0 0 52 51" fill="none" xmlns="http://www.w3.org/2000/svg">
<path fill-rule="evenodd" clip-rule="evenodd" d="M0 25.8105C0 11.6653 11.4732 0.192001 25.6185 0.192001C39.7637 0.192001 51.237 11.6653 51.3942 25.8105C51.3942 37.1267 44.1643 46.714 33.9484 50.1717C32.6911 50.3288 32.2196 49.543 32.2196 48.9143V41.8417C32.2196 39.4842 31.4338 37.9125 30.4908 37.1267C36.1489 36.498 42.1213 34.4548 42.1213 24.5532C42.1213 21.7241 41.021 19.3666 39.4494 17.6377C39.4618 17.5884 39.4791 17.5264 39.4996 17.4524C39.7402 16.5844 40.4383 14.0656 39.135 10.8795C39.135 10.8795 36.9347 10.2508 32.0624 13.5514C30.0193 13.0798 27.8188 12.7655 25.6185 12.7655C23.4182 12.7655 21.2179 12.9227 19.1746 13.5514C14.3023 10.2508 12.102 10.8795 12.102 10.8795C10.7129 14.275 11.5973 16.9127 11.7785 17.453L11.7877 17.4806C10.0587 19.3666 9.11569 21.567 9.11569 24.396C9.11569 34.2976 15.0883 36.498 20.7464 37.1267C20.1176 37.7553 19.3318 38.8555 19.1746 40.5844C17.7601 41.2131 14.1452 42.3132 11.7877 38.384C11.7877 38.384 10.3732 35.8693 7.8584 35.7122C7.8584 35.7122 5.34382 35.7122 7.70137 37.2838C7.70137 37.2838 9.43016 38.0697 10.5302 41.0559C10.5302 41.0559 12.102 46.0853 19.1746 44.5136V48.9143C19.1746 49.543 18.7031 50.3288 17.4458 50.1717C7.3869 46.714 0 37.1267 0 25.8105Z" fill="black"/>
</svg>
