<svg width="55" height="51" viewBox="0 0 55 51" fill="none" xmlns="http://www.w3.org/2000/svg">
<path fill-rule="evenodd" clip-rule="evenodd" d="M51.0768 19.8684L53.9131 28.583C54.126 29.2337 54.1271 29.935 53.9161 30.5863C53.7051 31.2376 53.293 31.8051 52.739 32.2073L27.7884 50.3256C27.5705 50.4869 27.307 50.5746 27.036 50.576C26.7649 50.5774 26.5005 50.4925 26.281 50.3336L1.33514 32.2073C0.781393 31.8053 0.36936 31.2381 0.158136 30.5872C-0.0531922 29.9363 -0.0526765 29.2352 0.159476 28.5846L3.0468 19.7137L3.05505 19.6957C3.05979 19.687 3.06433 19.6786 3.06433 19.669L8.75925 2.13297C8.9089 1.67997 9.19758 1.28566 9.58414 1.00615C9.9708 0.726632 10.4357 0.57613 10.9128 0.576052H10.9255C11.3991 0.575214 11.8607 0.72564 12.2429 1.0054C12.6251 1.28516 12.9079 1.67963 13.0504 2.13137L18.482 18.822H35.6002L41.0238 2.13137C41.1667 1.67807 41.451 1.28245 41.8351 1.00255C42.2192 0.722649 42.6829 0.573177 43.1582 0.576052C43.6348 0.572816 44.1003 0.720225 44.4882 0.997238C44.8761 1.27426 45.1665 1.66671 45.3181 2.11861L51.0082 19.6339C51.0387 19.7096 51.0617 19.7882 51.0768 19.8684ZM16.6252 21.3839L23.5787 42.7851L6.88649 21.3839H16.6252ZM30.5034 42.7899L37.1714 22.2724L37.4586 21.3839H47.2052L32.1034 40.7305L30.5034 42.7899ZM43.1805 3.77444L48.0666 18.822H38.2865L43.1805 3.77444ZM19.3132 21.3743H34.7722L27.0371 45.162L19.3132 21.3743ZM10.9016 3.77444L15.7973 18.822H6.02344L10.9016 3.77444ZM2.8363 30.1431C2.71862 30.0575 2.63116 29.9369 2.58639 29.7984C2.54163 29.66 2.54205 29.5109 2.58743 29.3726L4.73134 22.7845L20.4553 42.943L2.8363 30.1431ZM51.2394 30.1431L33.6189 42.9382L33.6779 42.8617L49.3428 22.7845L51.4868 29.3695C51.5327 29.5077 51.5335 29.657 51.489 29.7958C51.4446 29.9346 51.3572 30.0572 51.2394 30.1431Z" fill="black"/>
</svg>
