<svg width="50" height="50" viewBox="0 0 50 50" fill="none" xmlns="http://www.w3.org/2000/svg">
<path fill-rule="evenodd" clip-rule="evenodd" d="M34.7058 13.6819C32.1149 11.2046 28.8195 9.94322 25.149 9.94322C18.6376 9.94322 13.1272 14.3408 11.1613 20.2499C10.6613 21.7499 10.3772 23.3522 10.3772 24.9999C10.3772 26.6477 10.6603 28.2499 11.1603 29.7499C13.1262 35.659 18.6376 40.0568 25.149 40.0568C28.5126 40.0568 31.3772 39.1706 33.6159 37.6706C36.2636 35.8979 38.025 33.2501 38.6045 30.1251H25.1499V20.4546H48.6955C48.9909 22.091 49.15 23.7956 49.15 25.5683C49.15 33.1819 46.4228 39.5911 41.6955 43.9434C37.5591 47.7616 31.899 50 25.149 50C15.3762 50 6.92164 44.3977 2.80799 36.2272C1.1148 32.8522 0.149902 29.034 0.149902 24.9999C0.149902 20.9658 1.11582 17.1476 2.809 13.7726C6.92266 5.60212 15.3762 0 25.149 0C31.8876 0 37.5468 2.47728 41.8763 6.51139L34.7058 13.6819Z" fill="black"/>
</svg>
