<svg width="51" height="51" viewBox="0 0 51 51" fill="none" xmlns="http://www.w3.org/2000/svg">
<path fill-rule="evenodd" clip-rule="evenodd" d="M15.459 0.699997H35.9409C38.6518 1.0012 40.459 1.30241 41.965 1.90482C43.7722 2.80843 44.9771 3.41084 46.4831 4.91687C47.9891 6.42289 48.8927 7.92892 49.4951 9.43494C50.0975 10.941 50.7 12.7482 50.7 15.459V35.941C50.3987 38.6518 50.0975 40.459 49.4951 41.9651C48.5915 43.7723 47.9891 44.9771 46.4831 46.4831C44.9771 47.9892 43.471 48.8928 41.965 49.4952C40.459 50.0976 38.6518 50.7 35.9409 50.7H15.459C12.7481 50.3988 10.9409 50.0976 9.43489 49.4952C7.62766 48.5916 6.42285 47.9892 4.91682 46.4831C3.4108 44.9771 2.50718 43.4711 1.90477 41.9651C1.30236 40.459 0.699951 38.6518 0.699951 35.941V15.459C1.00116 12.7482 1.30236 10.941 1.90477 9.43494C2.80839 7.62771 3.4108 6.42289 4.91682 4.91687C6.42285 3.41084 7.92887 2.50723 9.43489 1.90482C10.9409 1.30241 12.7481 0.699997 15.459 0.699997ZM35.9409 5.21807H15.459C13.0494 5.51928 11.8445 5.82048 10.9409 6.12168C9.7361 6.42289 8.83248 7.0253 7.92887 7.92892C7.21385 8.64394 6.87602 9.35896 6.46768 10.2232C6.36006 10.451 6.24725 10.6897 6.12164 10.941C6.07504 11.0808 6.02124 11.2277 5.96357 11.3853C5.64846 12.2462 5.21802 13.4222 5.21802 15.459V35.941C5.51923 38.3506 5.82043 39.5554 6.12164 40.459C6.42285 41.6639 7.02525 42.5675 7.92887 43.4711C8.64389 44.1861 9.35892 44.5239 10.2232 44.9323C10.4511 45.04 10.6895 45.1526 10.9409 45.2783C11.0807 45.3249 11.2277 45.3787 11.3852 45.4364C12.2461 45.7515 13.4221 46.1819 15.459 46.1819H35.9409C38.3506 45.8807 39.5554 45.5795 40.459 45.2783C41.6638 44.9771 42.5674 44.3747 43.471 43.4711C44.1861 42.7561 44.5239 42.0411 44.9322 41.1768C45.0399 40.9489 45.1526 40.7104 45.2783 40.459C45.3249 40.3193 45.3787 40.1723 45.4363 40.0147C45.7514 39.1538 46.1819 37.9778 46.1819 35.941V15.459C45.8807 13.0494 45.5795 11.8446 45.2783 10.941C44.9771 9.73615 44.3747 8.83253 43.471 7.92892C42.756 7.21389 42.041 6.87606 41.1767 6.46773C40.9491 6.36019 40.71 6.2472 40.459 6.12168C40.3192 6.07509 40.1722 6.02128 40.0147 5.96362C39.1538 5.64851 37.9778 5.21807 35.9409 5.21807ZM12.7481 25.7C12.7481 18.4711 18.471 12.7482 25.7 12.7482C32.9289 12.7482 38.6518 18.4711 38.6518 25.7C38.6518 32.9289 32.9289 38.6518 25.7 38.6518C18.471 38.6518 12.7481 32.9289 12.7481 25.7ZM38.953 15.459C40.6165 15.459 41.965 14.1105 41.965 12.447C41.965 10.7835 40.6165 9.43494 38.953 9.43494C37.2895 9.43494 35.9409 10.7835 35.9409 12.447C35.9409 14.1105 37.2895 15.459 38.953 15.459ZM17.2662 25.7C17.2662 30.5193 21.1819 34.1337 25.7 34.1337C30.218 34.1337 34.1337 30.2181 34.1337 25.7C34.1337 20.8807 30.218 17.2663 25.7 17.2663C20.8807 17.2663 17.2662 21.1819 17.2662 25.7Z" fill="black"/>
</svg>
