<svg width="50" height="50" viewBox="0 0 50 50" fill="none" xmlns="http://www.w3.org/2000/svg">
<path fill-rule="evenodd" clip-rule="evenodd" d="M0.624991 16.5625V50H11.25V16.5625H0.624991ZM0 5.9375C0 9.375 2.50001 11.875 5.93751 11.875C9.375 11.875 11.875 9.375 11.875 5.9375C11.875 2.50001 9.375 0 5.93751 0C2.8125 0 0 2.50001 0 5.9375ZM39.375 50H49.375V29.375C49.375 19.0625 43.125 15.625 37.1875 15.625C31.875 15.625 28.125 19.0625 27.1875 21.25V16.5625H17.1875V50H27.8125V32.1875C27.8125 27.5 30.9375 25 34.0625 25C37.1875 25 39.375 26.5625 39.375 31.875V50Z" fill="black"/>
</svg>
