<svg width="51" height="50" viewBox="0 0 51 50" fill="none" xmlns="http://www.w3.org/2000/svg">
<path fill-rule="evenodd" clip-rule="evenodd" d="M0 25.641C0 11.5385 11.5385 0 25.641 0C39.7436 0 51.282 11.5385 50.9615 24.359C50.9615 38.4615 39.4231 50 25.3205 50C22.7564 50 20.1923 49.6795 17.9487 49.0385C18.9103 47.4359 19.8718 45.5128 20.5128 43.5897C20.8333 42.3077 22.4359 36.5385 22.4359 36.5385C23.3974 38.141 25.9615 39.7436 28.8462 39.7436C37.1795 39.7436 42.6282 32.0513 42.6282 22.1154C42.6282 14.4231 36.2179 7.37181 26.282 7.37181C14.1026 7.37181 8.01282 16.0256 8.01282 23.3974C8.01282 27.8846 9.61541 31.7308 13.141 33.3333C13.7821 33.6538 14.1026 33.3333 14.4231 32.6923C14.7436 32.3718 15.0641 31.0897 15.0641 30.7692C15.2907 30.316 15.1969 30.1832 15.0091 29.9177C14.9314 29.8077 14.8375 29.6749 14.7436 29.4872C13.7821 28.2051 13.141 26.6026 13.141 24.359C13.141 17.9487 17.9487 12.1795 25.641 12.1795C32.3718 12.1795 36.218 16.3462 36.218 22.1154C36.218 29.8077 33.0128 35.8974 28.2051 35.8974C25.3205 35.8974 23.3974 33.6538 24.0385 31.0897C24.306 29.7519 24.7412 28.3581 25.1573 27.0251C25.7381 25.1646 26.282 23.4224 26.282 22.1154C26.282 19.8718 25 18.2692 22.7564 18.2692C20.1923 18.2692 17.9487 21.1538 17.9487 25C17.9487 27.5641 18.9102 29.1667 18.9102 29.1667C18.9102 29.1667 16.3461 41.0257 15.7051 43.2692C15.3846 45.1922 15.3846 47.1151 15.3846 49.038C6.41027 45.1919 0 36.218 0 25.641Z" fill="black"/>
</svg>
