<svg width="51" height="50" viewBox="0 0 51 50" fill="none" xmlns="http://www.w3.org/2000/svg">
<path fill-rule="evenodd" clip-rule="evenodd" d="M48.7396 28.7037C49.0482 27.4693 49.0482 25.9264 49.0482 24.6919C49.0482 17.9018 45.9617 11.4198 40.7148 6.79013C35.4679 2.1605 28.3691 0.617286 21.579 1.54321C19.7271 0.617286 17.2581 0 14.789 0C9.85071 0 5.22101 2.77778 2.75187 7.09876C0.282744 11.4198 0.282744 16.6667 2.75187 20.9877C1.51729 28.3951 3.67773 36.1111 9.23327 41.6667C14.4802 46.9136 22.1963 49.3827 29.6038 48.1481C31.7643 49.3827 33.9248 50 36.3939 50C41.3322 50 45.9617 47.2222 48.4309 42.9012C50.9 38.2716 51.2087 33.0247 48.7396 28.7037ZM25.9 39.5062C17.5667 39.5062 13.8629 35.1852 13.8629 32.0988C13.8629 31.4815 14.1717 30.5555 14.789 30.2469C15.4063 29.6296 16.0235 29.6296 16.6408 29.6296C18.047 29.6296 18.7119 30.5298 19.4909 31.5845C20.5926 33.0761 21.9224 34.8765 25.9 34.8765C29.2951 34.8765 31.147 32.716 31.147 30.8642C31.147 29.6296 30.5296 28.3951 28.3691 27.7778L20.9618 25.9259C15.0976 24.3827 14.1717 20.9877 14.1717 18.2099C14.1717 11.7284 20.0359 9.5679 25.5915 9.5679C30.5297 9.5679 36.7025 12.3457 36.7025 16.0494C36.7025 17.5926 35.4679 18.5185 33.6161 18.5185C32.3376 18.5185 31.6947 17.7771 30.9414 16.9086C29.8761 15.6803 28.5901 14.1975 24.9741 14.1975C21.8877 14.1975 20.3445 15.7407 20.3445 17.5926C20.3445 19.4444 22.8135 20.3704 24.6654 20.679L30.2211 21.9136C36.0853 23.1481 37.6284 26.8519 37.6284 29.9383C37.6284 35.8025 33.6161 39.5062 25.9 39.5062Z" fill="black"/>
</svg>
