<svg width="51" height="50" viewBox="0 0 51 50" fill="none" xmlns="http://www.w3.org/2000/svg">
<path fill-rule="evenodd" clip-rule="evenodd" d="M18.4322 10.5095C15.5262 10.5095 13.1775 8.16081 13.1775 5.25476C13.1775 2.34872 15.5262 0 18.4322 0C21.3383 0 23.687 2.34872 23.687 5.25476V10.5095H18.4322ZM5.29444 36.8629C8.20048 36.8629 10.5492 34.5142 10.5492 31.6081V26.3534H5.29444C2.38839 26.3534 0.0396727 28.7021 0.0396727 31.6081C0.0396727 34.5142 2.38839 36.8629 5.29444 36.8629ZM18.4322 26.3536C15.5262 26.3536 13.1775 28.7023 13.1775 31.6083V44.7452C13.1775 47.6513 15.5262 50 18.4322 50C21.3383 50 23.687 47.6513 23.687 44.7452V31.6083C23.687 28.7023 21.3383 26.3536 18.4322 26.3536ZM23.6862 18.4315C23.6862 15.5254 21.3375 13.1767 18.4315 13.1767H5.25476C2.34872 13.1767 0 15.5254 0 18.4315C0 21.3375 2.34872 23.6862 5.25476 23.6862H18.4315C21.3375 23.6862 23.6862 21.3375 23.6862 18.4315ZM39.4912 18.4315C39.4912 15.5254 41.8399 13.1767 44.7459 13.1767C47.652 13.1767 50.0007 15.5254 50.0007 18.4315C50.0007 21.3375 47.652 23.6862 44.7459 23.6862H39.4912V18.4315ZM31.6081 23.6862C34.5142 23.6862 36.8629 21.3375 36.8629 18.4315V5.25476C36.8629 2.34872 34.5142 0 31.6081 0C28.7021 0 26.3534 2.34872 26.3534 5.25476V18.4315C26.3534 21.3375 28.7021 23.6862 31.6081 23.6862ZM31.6081 39.4904C34.5142 39.4904 36.8629 41.8391 36.8629 44.7452C36.8629 47.6512 34.5142 49.9999 31.6081 49.9999C28.7021 49.9999 26.3534 47.6512 26.3534 44.7452V39.4904H31.6081ZM26.3534 31.6081C26.3534 34.5142 28.7021 36.8629 31.6081 36.8629H44.7849C47.6909 36.8629 50.0396 34.5142 50.0396 31.6081C50.0396 28.7021 47.6909 26.3534 44.7849 26.3534H31.6081C28.7021 26.3534 26.3534 28.7021 26.3534 31.6081Z" fill="black"/>
</svg>
