<svg width="61" height="50" viewBox="0 0 61 50" fill="none" xmlns="http://www.w3.org/2000/svg">
<path fill-rule="evenodd" clip-rule="evenodd" d="M36.5461 7.56943C31.1425 9.81696 20.343 14.4688 4.14757 21.5249C1.51768 22.5707 0.140031 23.5938 0.0146162 24.5942C-0.197336 26.2849 1.91989 26.9507 4.80302 27.8572C5.19519 27.9806 5.60155 28.1083 6.01813 28.2438C8.85469 29.1658 12.6703 30.2445 14.654 30.2874C16.4533 30.3262 18.4615 29.5844 20.6787 28.062C35.8106 17.8475 43.6218 12.6846 44.1122 12.5733C44.4581 12.4948 44.9376 12.396 45.2624 12.6848C45.5873 12.9735 45.5553 13.5203 45.5209 13.667C45.3112 14.5611 37.0003 22.2877 32.6994 26.2862C31.3586 27.5327 30.4075 28.4169 30.2131 28.6189C29.7775 29.0712 29.3337 29.4991 28.907 29.9104C26.2718 32.4508 24.2957 34.3558 29.0165 37.4668C31.2851 38.9617 33.1005 40.198 34.9115 41.4313C36.8894 42.7783 38.8621 44.1217 41.4145 45.7948C42.0648 46.2211 42.6859 46.6639 43.2908 47.0951C45.5925 48.7361 47.6605 50.2103 50.2153 49.9752C51.6998 49.8386 53.2332 48.4427 54.0119 44.2795C55.8524 34.4406 59.47 13.1228 60.3061 4.33818C60.3793 3.56853 60.2872 2.58354 60.2132 2.15116C60.1392 1.71877 59.9845 1.1027 59.4225 0.646652C58.7569 0.10655 57.7293 -0.00734607 57.2697 0.000356819C55.1802 0.0375587 51.9744 1.15228 36.5461 7.56943Z" fill="black"/>
</svg>
