<svg width="62" height="51" viewBox="0 0 62 51" fill="none" xmlns="http://www.w3.org/2000/svg">
<path fill-rule="evenodd" clip-rule="evenodd" d="M54.2308 8.19231C56.9231 7.80769 59.2308 7.42308 61.5385 6.26923C60 8.96154 57.6923 11.2692 55 12.8077C55.7692 30.8846 42.6923 50.5 19.2308 50.5C12.3077 50.5 5.76923 48.1923 0 44.7308C6.53846 45.5 13.4615 43.5769 18.0769 40.1154C12.3077 40.1154 7.69231 36.2692 6.15385 31.2692C8.07692 31.6538 10 31.2692 11.9231 30.8846C6.15385 29.3462 1.92308 23.9615 1.92308 18.1923C3.84615 18.9615 5.76923 19.7308 7.69231 19.7308C2.30769 15.8846 0.384617 8.57692 3.84615 2.80769C10.3846 10.5 19.6154 15.5 30 15.8846C28.0769 8.19231 34.2308 0.5 42.3077 0.5C45.7692 0.5 49.2308 2.03846 51.5385 4.34615C54.6154 3.57692 57.3077 2.80769 59.6154 1.26923C58.8461 4.34615 56.9231 6.65385 54.2308 8.19231Z" fill="black"/>
</svg>
