<svg width="58" height="51" viewBox="0 0 58 51" fill="none" xmlns="http://www.w3.org/2000/svg">
<path fill-rule="evenodd" clip-rule="evenodd" d="M2.50211 16.6565L0 13.4396C0 13.4396 9.65087 2.00155 17.157 0.571795C23.392 -0.845254 24.6834 7.40026 25.8416 14.7963C26.1442 16.7282 26.4377 18.6022 26.8078 20.2309C28.595 27.3796 30.0248 31.6689 31.4545 31.6689C32.8843 31.6689 36.1013 27.3796 39.3182 21.3032C42.8926 14.8693 39.3182 9.50774 33.2417 13.4396C35.7438 -2.28772 60.407 -5.8621 57.1901 12.0098C53.9731 30.2391 36.1013 45.2515 30.7397 48.8259C25.3781 52.4003 20.374 47.3962 18.5868 43.8218C17.8355 42.0187 16.2631 36.9308 14.5864 31.5059C12.2746 24.026 9.76464 15.9052 8.93595 14.8693C7.14876 12.7247 2.50211 16.6565 2.50211 16.6565Z" fill="black"/>
</svg>
