<svg width="50" height="50" viewBox="0 0 50 50" fill="none" xmlns="http://www.w3.org/2000/svg">
<path fill-rule="evenodd" clip-rule="evenodd" d="M42.5 7.18751C37.8125 2.50001 31.5625 0 25 0C11.25 0 0 11.25 0 25C0 29.375 1.25003 33.75 3.43752 37.5L0 50L13.125 46.5625C16.875 48.4375 20.9375 49.6875 25 49.6875C38.75 49.6875 50 38.4375 50 24.6875C50 18.125 47.1875 11.875 42.5 7.18751ZM14.375 42.8125C17.5 44.6875 21.25 45.625 25 45.625C36.5625 45.625 45.625 36.25 45.625 25.3125C45.625 19.6875 43.75 14.6875 39.6875 10.625C35.625 6.87499 30.625 4.6875 25 4.6875C13.75 4.6875 4.37498 14.0625 4.37498 25.3125C4.37498 29.0625 5.31249 32.8125 7.49998 36.25L8.12502 37.1875L5.93748 44.6875L13.75 42.5L14.375 42.8125ZM36.25 30C35.625 29.6875 32.5 28.125 31.875 28.125C31.25 27.8125 30.9375 27.8125 30.625 28.4375C30.4687 28.75 30.0781 29.2187 29.6875 29.6875C29.2969 30.1563 28.9063 30.625 28.75 30.9375C28.4375 31.25 28.125 31.25 27.5 31.25C27.4024 31.2012 27.2744 31.1448 27.1183 31.076C26.2743 30.7043 24.6098 29.971 22.5 28.125C20.625 26.5625 19.375 24.375 19.0625 23.75C18.75 23.125 19.0625 22.8125 19.375 22.5L20.3125 21.5625C20.4688 21.4063 20.5469 21.25 20.625 21.0938C20.7031 20.9375 20.7813 20.7812 20.9375 20.625C21.1459 20.4167 21.0764 20.2083 21.007 20C20.9723 19.8958 20.9375 19.7917 20.9375 19.6875C20.9375 19.375 19.6875 16.25 19.0625 15C18.75 14.0625 18.125 14.0625 17.8125 14.0625H16.5625C16.25 14.0625 15.625 14.0625 15 14.6875C14.375 15.3125 12.8125 16.875 12.8125 20C12.8125 22.5929 14.3185 24.9707 15.0098 26.0623C15.1517 26.2863 15.2593 26.4561 15.3125 26.5625C15.3512 26.6012 15.4473 26.7356 15.5979 26.9462C16.6641 28.4372 20.461 33.7469 25.9375 35.9375C30.3499 37.7544 31.7443 37.631 32.8063 37.5371C33.023 37.5179 33.2258 37.5 33.4375 37.5C34.6875 37.5 37.1875 35.9375 37.5 34.6875C38.125 33.125 38.125 31.875 37.8125 31.875C37.5487 30.5558 37.0621 30.3504 36.5408 30.1303C36.4447 30.0897 36.3473 30.0487 36.25 30Z" fill="black"/>
</svg>
