<svg width="72" height="51" viewBox="0 0 72 51" fill="none" xmlns="http://www.w3.org/2000/svg">
<path fill-rule="evenodd" clip-rule="evenodd" d="M63.3929 1.73929C66.5179 2.63214 68.75 4.86429 69.6429 7.98929C71.4286 13.7929 71.4286 25.4 71.4286 25.4C71.4286 25.4 71.4286 37.0071 70.0893 42.8107C69.1965 45.9357 66.9642 48.1678 63.8392 49.0607C58.0357 50.4 35.7143 50.4 35.7143 50.4C35.7143 50.4 12.9464 50.4 7.58927 49.0607C4.46427 48.1678 2.23216 45.9357 1.3393 42.8107C1.27724e-05 37.0071 0 25.4 0 25.4C0 25.4 -1.27724e-05 13.7929 0.892843 7.98929C1.7857 4.86429 4.01788 2.63214 7.14288 1.73929C12.9465 0.400002 35.2678 0.400002 35.2678 0.400002C35.2678 0.400002 58.0358 0.400002 63.3929 1.73929ZM28.5714 14.6857L47.3215 25.4L28.5714 36.1143V14.6857Z" fill="black"/>
</svg>
